<?xml version="1.0" standalone="no"?>
<!DOCTYPE svg PUBLIC "-//W3C//DTD SVG 20010904//EN"
 "http://www.w3.org/TR/2001/REC-SVG-20010904/DTD/svg10.dtd">
<svg version="1.0" xmlns="http://www.w3.org/2000/svg"
 width="1023.000000pt" height="1023.000000pt" viewBox="0 0 1023.000000 1023.000000"
 preserveAspectRatio="xMidYMid meet">
<metadata>
Created by potrace 1.14, written by Peter Selinger 2001-2017
</metadata>
<g transform="translate(0.000000,1023.000000) scale(0.100000,-0.100000)"
fill="#000000" stroke="none">
<path d="M5011 9456 c10 -9 89 -46 89 -41 0 5 -75 45 -86 45 -4 0 -5 -2 -3 -4z"/>
<path d="M5110 9406 c0 -2 24 -19 53 -37 28 -17 62 -38 75 -47 12 -8 22 -12
22 -10 0 6 -92 68 -127 87 -13 6 -23 10 -23 7z"/>
<path d="M4870 9255 c0 -7 61 -37 66 -33 2 3 -12 12 -31 21 -19 9 -35 15 -35
12z"/>
<path d="M2376 9214 c-11 -8 -16 -14 -10 -14 13 0 39 18 34 24 -3 2 -14 -2
-24 -10z"/>
<path d="M2428 9213 c7 -3 16 -2 19 1 4 3 -2 6 -13 5 -11 0 -14 -3 -6 -6z"/>
<path d="M4950 9217 c0 -3 47 -32 104 -66 120 -69 281 -188 345 -255 l45 -46
-23 -24 c-13 -14 -45 -30 -72 -36 -27 -7 -65 -22 -83 -35 -26 -17 -36 -20 -39
-10 -9 22 -71 101 -94 119 -33 25 -28 16 18 -34 23 -25 47 -60 55 -77 8 -18
16 -33 19 -33 2 0 25 11 50 25 26 13 63 27 83 31 26 5 55 23 94 60 31 30 54
54 51 54 -4 0 -14 -7 -24 -16 -16 -15 -24 -10 -111 66 -51 45 -136 110 -188
145 -98 64 -230 141 -230 132z"/>
<path d="M2241 9144 c0 -11 3 -14 6 -6 3 7 2 16 -1 19 -3 4 -6 -2 -5 -13z"/>
<path d="M4852 9118 c-43 -55 -83 -188 -81 -274 l2 -59 7 71 c12 108 53 236
83 256 27 17 122 -70 184 -167 15 -25 34 -47 41 -50 17 -6 11 3 -54 90 -48 65
-86 101 -139 132 -26 16 -30 16 -43 1z"/>
<path d="M2221 9095 c1 -11 5 -33 9 -50 l8 -30 1 35 c0 19 -4 42 -9 50 -8 12
-10 11 -9 -5z"/>
<path d="M2128 9003 c7 -3 16 -2 19 1 4 3 -2 6 -13 5 -11 0 -14 -3 -6 -6z"/>
<path d="M2231 8884 c0 -11 3 -14 6 -6 3 7 2 16 -1 19 -3 4 -6 -2 -5 -13z"/>
<path d="M4418 8883 c28 -11 9 -19 -30 -14 -59 9 -98 0 -111 -26 -21 -38 6
-369 27 -342 1 2 -3 68 -10 146 -6 78 -9 156 -5 175 6 30 10 33 49 36 23 2 70
-4 104 -13 33 -8 63 -14 65 -11 4 4 -86 56 -96 55 -3 0 0 -3 7 -6z"/>
<path d="M5654 8834 c5 -10 14 -41 21 -69 7 -27 13 -42 14 -32 2 28 -20 107
-32 114 -7 4 -8 0 -3 -13z"/>
<path d="M5955 8795 c-27 -19 -56 -32 -63 -30 -7 3 -11 1 -8 -3 3 -5 -34 -50
-83 -100 -90 -93 -121 -132 -121 -154 0 -6 13 9 30 35 16 26 38 51 49 55 10 4
39 33 65 64 25 31 77 80 116 109 38 28 70 53 70 55 0 6 -1 5 -55 -31z"/>
<path d="M4971 8794 c0 -11 3 -14 6 -6 3 7 2 16 -1 19 -3 4 -6 -2 -5 -13z"/>
<path d="M2222 8744 c-12 -24 -20 -44 -18 -44 7 0 47 72 44 80 -2 4 -13 -12
-26 -36z"/>
<path d="M4695 8768 c11 -6 35 -24 53 -41 l32 -31 -1 40 c-1 21 -3 31 -6 22
-6 -23 -9 -22 -40 2 -14 11 -33 20 -42 20 -13 -1 -12 -3 4 -12z"/>
<path d="M4981 8734 c0 -11 9 -29 22 -40 22 -19 22 -19 6 1 -10 11 -19 29 -22
40 -4 19 -5 19 -6 -1z"/>
<path d="M4460 8726 c0 -2 7 -7 16 -10 8 -3 12 -2 9 4 -6 10 -25 14 -25 6z"/>
<path d="M6430 8720 c-9 -6 -10 -10 -3 -10 6 0 15 5 18 10 8 12 4 12 -15 0z"/>
<path d="M6222 8710 c0 -8 6 -31 13 -50 7 -19 13 -28 13 -20 0 8 -6 31 -13 50
-7 19 -13 28 -13 20z"/>
<path d="M4500 8705 c0 -10 40 -75 47 -75 2 0 -6 17 -18 38 -28 45 -29 47 -29
37z"/>
<path d="M2186 8675 c-9 -26 -7 -32 5 -12 6 10 9 21 6 23 -2 3 -7 -2 -11 -11z"/>
<path d="M4676 8676 c23 -8 51 -19 63 -25 11 -7 21 -9 21 -7 0 10 -55 34 -90
39 -33 6 -32 5 6 -7z"/>
<path d="M2262 8655 c0 -16 2 -22 5 -12 2 9 2 23 0 30 -3 6 -5 -1 -5 -18z"/>
<path d="M4595 8670 c-3 -6 1 -7 9 -4 18 7 21 14 7 14 -6 0 -13 -4 -16 -10z"/>
<path d="M2271 8594 c0 -11 3 -14 6 -6 3 7 2 16 -1 19 -3 4 -6 -2 -5 -13z"/>
<path d="M5378 8550 c23 -5 57 -19 75 -32 20 -14 27 -16 19 -6 -8 10 -11 22
-8 27 4 5 1 13 -5 17 -8 5 -9 3 -4 -6 6 -10 4 -11 -11 -5 -10 5 -39 10 -64 11
l-45 3 43 -9z"/>
<path d="M6397 8549 c12 -15 73 -53 73 -46 0 2 -19 17 -42 32 -24 16 -38 22
-31 14z"/>
<path d="M4678 8519 c-20 -10 -40 -24 -44 -30 -4 -8 -3 -9 4 -5 7 4 12 5 12 3
0 -13 -41 -95 -57 -113 -21 -24 -49 -71 -103 -176 -22 -43 -44 -78 -48 -78 -5
0 -17 -7 -28 -16 -18 -14 -18 -15 4 -4 25 12 27 5 11 -37 -31 -75 -66 -243
-68 -319 -2 -65 4 -98 27 -171 l29 -91 -41 4 -41 4 45 -12 44 -13 43 -115
c118 -312 148 -383 215 -504 54 -97 54 -100 -14 -111 -55 -10 -137 4 -159 26
-29 29 -26 160 5 269 14 46 23 87 20 92 -3 4 -16 8 -29 8 -13 0 -52 13 -87 30
-34 16 -71 30 -80 30 -10 0 -26 8 -36 18 -9 9 -49 27 -88 40 -86 27 -153 82
-189 153 -14 27 -25 53 -25 59 0 18 80 98 151 151 38 28 69 54 69 58 0 3 12
20 27 36 68 76 69 79 50 72 -10 -4 -16 -3 -13 2 7 11 -27 41 -109 93 -39 25
-83 59 -97 76 -15 18 -50 46 -80 63 -29 17 -62 38 -72 48 -18 15 -18 15 -8 -5
6 -11 28 -29 49 -40 21 -10 67 -46 103 -79 36 -33 76 -68 90 -78 16 -12 18
-16 7 -13 -11 4 -16 2 -12 -5 4 -6 14 -8 22 -5 22 9 85 -58 69 -74 -8 -8 -6
-9 9 -4 18 7 18 6 6 -9 -10 -13 -17 -14 -33 -6 -14 8 -23 8 -31 0 -8 -8 -7
-11 3 -11 11 0 11 -3 2 -12 -7 -7 -12 -16 -12 -21 0 -5 7 -1 16 7 8 9 13 20 9
26 -3 5 0 7 9 4 23 -9 -23 -73 -82 -115 -26 -18 -70 -55 -97 -81 l-51 -47 -91
92 c-148 149 -303 300 -303 295 0 -3 88 -93 195 -199 146 -145 195 -199 195
-217 0 -34 54 -124 96 -161 41 -37 94 -65 149 -80 30 -8 69 -37 147 -111 l106
-100 -9 -37 c-5 -21 -9 -73 -9 -115 0 -67 3 -80 24 -105 22 -25 31 -28 105
-31 45 -2 95 1 113 7 21 7 34 8 36 2 2 -5 19 -30 37 -55 24 -30 31 -46 22 -49
-6 -3 -2 -6 9 -6 37 -2 44 -23 43 -125 -1 -125 7 -136 98 -136 34 0 63 4 63 8
0 5 -28 8 -62 8 -57 -1 -63 1 -75 24 -17 33 -17 167 0 174 8 3 7 9 -7 20 -10
8 -15 19 -11 25 3 6 0 11 -8 11 -25 0 -122 140 -191 277 -34 68 -33 78 5 43
18 -16 39 -28 48 -28 9 0 49 -7 89 -16 83 -18 152 -20 200 -7 17 5 32 6 32 1
0 -4 15 -5 33 -1 45 10 90 7 95 -7 2 -7 -5 -12 -15 -12 -11 0 -34 -16 -53 -35
-19 -19 -40 -35 -47 -35 -7 0 -13 -4 -13 -10 0 -5 7 -10 15 -10 8 0 15 -4 15
-10 0 -5 -7 -10 -16 -10 -32 0 -6 -25 45 -42 47 -17 54 -17 81 -3 17 9 30 12
30 9 0 -4 9 1 20 11 11 10 20 15 20 12 0 -3 -34 -35 -75 -71 l-74 -65 -103 4
-103 4 79 -9 c43 -5 83 -11 89 -13 5 -1 -16 -19 -47 -40 -31 -20 -56 -40 -56
-43 0 -7 88 43 112 64 10 8 29 15 44 15 18 0 22 2 13 8 -11 7 -10 11 6 24 36
28 49 32 117 39 57 5 74 3 107 -14 51 -25 71 -55 72 -105 l1 -40 8 35 c14 59
-28 112 -112 139 -27 9 -43 9 -57 2 -18 -10 -61 -15 -61 -8 0 5 173 177 175
174 1 -1 10 -33 20 -72 44 -166 144 -348 237 -429 42 -37 46 -43 24 -39 -15 3
-33 18 -45 38 -16 27 -27 34 -67 40 -27 4 -55 12 -61 17 -18 15 -16 2 3 -16 8
-9 31 -16 49 -16 35 0 69 -26 80 -61 3 -9 18 -19 33 -22 15 -4 47 -10 72 -16
25 -5 124 -37 220 -70 l175 -60 8 -84 c10 -115 3 -132 -65 -146 l-53 -10 57 3
c32 1 61 5 64 9 15 14 22 86 15 151 -5 39 -8 72 -7 73 0 0 35 -6 76 -14 106
-20 210 -34 319 -41 l95 -7 -2 -65 c-1 -36 2 -72 8 -80 7 -11 10 -4 10 28 0
29 4 41 11 36 8 -5 8 -1 0 14 -6 11 -11 32 -11 46 0 23 3 24 38 19 49 -7 154
-33 170 -42 8 -4 28 -32 45 -63 40 -68 200 -298 205 -293 2 2 -46 79 -108 170
-61 92 -109 169 -107 171 5 5 135 -39 175 -60 l32 -17 0 28 c0 16 9 71 20 123
28 136 29 134 -31 159 -29 11 -67 21 -85 21 -18 0 -36 5 -39 10 -4 7 12 9 47
6 29 -3 47 -2 40 1 -6 2 -10 9 -6 14 5 8 -23 109 -62 227 -8 23 -14 45 -14 47
0 2 19 9 43 16 105 29 144 42 177 59 56 29 245 86 365 111 61 12 115 27 120
32 6 6 -2 8 -23 5 -18 -3 -35 -1 -37 2 -3 4 35 8 83 8 48 0 101 5 118 10 31
10 178 115 204 147 8 10 -20 -7 -62 -38 -42 -31 -81 -57 -87 -57 -5 0 -28 10
-50 22 -33 17 -41 27 -41 49 0 21 -9 34 -35 52 l-36 24 65 29 c36 15 64 30 62
31 -9 10 -203 -70 -356 -145 l-175 -87 -115 2 c-141 3 -240 12 -240 22 0 4 18
27 40 51 22 23 42 52 46 64 4 12 15 32 24 46 10 14 39 68 64 120 26 52 56 104
66 115 53 58 96 239 80 336 -4 24 -11 64 -15 88 l-8 43 34 -17 c19 -10 44 -27
57 -38 12 -11 22 -16 22 -11 0 5 -27 28 -61 50 l-60 40 -53 154 c-29 85 -61
176 -71 202 -18 45 -18 49 -2 83 20 41 14 48 -7 8 -14 -27 -14 -27 -66 85 -29
62 -55 111 -57 109 -2 -2 17 -47 42 -99 43 -91 139 -347 132 -354 -1 -2 -11
11 -20 29 -10 18 -34 42 -53 55 -33 21 -37 22 -53 8 -10 -9 -21 -13 -25 -9 -4
4 -4 0 0 -10 4 -11 1 -17 -9 -17 -26 0 -27 28 -1 86 l24 56 -27 37 c-58 78
-156 179 -170 174 -9 -3 -11 0 -7 10 6 16 -11 31 -36 33 -8 1 -25 2 -38 3 -13
0 -20 5 -17 11 4 6 16 8 28 4 19 -6 20 -5 8 10 -7 9 -20 16 -27 16 -8 0 -14 4
-14 10 0 5 -37 10 -82 12 l-83 3 55 12 55 12 -71 -5 c-40 -3 -106 -13 -148
-23 -42 -10 -88 -16 -102 -13 -16 3 -35 -3 -53 -16 -52 -38 -128 -65 -166 -58
-19 3 -50 9 -69 12 -53 9 -136 -19 -176 -61 -41 -42 -34 -46 12 -6 54 47 134
63 221 44 l39 -8 -25 -21 c-13 -12 -40 -46 -59 -75 -69 -106 -128 -200 -128
-203 0 -2 11 -7 25 -10 13 -3 49 -27 80 -51 57 -47 73 -49 31 -3 -22 23 -23
28 -10 44 14 18 14 18 8 -1 -3 -11 4 -6 16 13 12 17 28 32 35 32 8 0 20 9 28
20 20 28 70 42 93 26 11 -8 14 -18 9 -26 -6 -9 -4 -11 4 -5 7 4 11 15 8 24 -3
13 2 17 23 17 19 0 26 -4 23 -13 -4 -11 -8 -11 -22 -1 -14 12 -15 11 -2 -4 11
-14 11 -21 1 -33 -7 -8 -17 -12 -23 -8 -5 3 -7 1 -3 -5 3 -6 -17 -30 -46 -55
-112 -95 -117 -100 -63 -65 54 35 144 121 186 178 32 43 111 86 238 130 107
36 101 39 151 -55 18 -33 45 -83 61 -112 30 -53 59 -134 59 -166 0 -11 -9 -32
-20 -48 -35 -48 -37 -114 -6 -187 l27 -63 -20 -65 c-22 -74 -16 -77 11 -6 23
60 23 84 -2 132 -29 57 -27 132 6 188 14 24 24 51 21 60 -3 10 -8 26 -12 37
l-7 20 17 -20 c30 -37 94 -161 115 -225 18 -55 21 -78 16 -175 -3 -62 -10
-123 -15 -136 -6 -17 -27 -32 -65 -48 -31 -12 -56 -25 -56 -28 0 -3 11 -18 25
-35 47 -56 51 -93 18 -199 l-29 -94 -64 1 c-85 2 -316 69 -280 81 24 8 50 46
50 73 0 17 10 30 31 43 l32 18 -7 98 c-4 66 -3 107 5 123 12 27 112 93 127 84
5 -3 9 1 9 9 0 15 -2 14 -95 -33 -51 -26 -62 -56 -62 -172 l0 -101 -30 -17
c-23 -13 -30 -24 -30 -47 0 -39 -9 -51 -44 -64 -24 -10 -37 -6 -99 26 -39 21
-102 60 -140 88 l-69 51 -36 -33 c-20 -18 -37 -42 -39 -53 -6 -39 -60 -146
-92 -183 -40 -45 -62 -46 -212 -17 -57 11 -104 18 -107 16 -4 -5 113 -32 202
-46 80 -13 98 -5 146 61 33 46 28 51 79 -78 18 -45 53 -111 77 -145 49 -71 52
-78 26 -78 -10 0 -27 -7 -38 -15 -18 -14 -17 -14 9 -5 48 17 67 12 120 -35 60
-53 150 -102 226 -125 l56 -16 3 -71 3 -71 -51 -17 c-27 -9 -50 -19 -50 -22 0
-6 57 2 83 12 14 6 17 1 17 -29 0 -20 5 -36 10 -36 6 0 10 36 10 88 l0 87 34
-83 c19 -46 37 -86 41 -90 11 -9 3 15 -39 130 -19 53 -32 99 -28 101 4 3 52 6
107 8 l100 4 52 -125 52 -125 -64 -3 c-36 -2 -65 -7 -65 -12 0 -14 -217 -13
-222 1 -5 16 -186 -15 -266 -46 l-70 -27 -56 36 c-46 29 -56 41 -56 64 0 15
-9 45 -21 66 -11 21 -17 36 -12 34 78 -39 133 -55 133 -39 0 6 -6 11 -13 11
-8 0 -36 11 -63 25 -27 14 -54 25 -60 25 -15 0 -14 -32 2 -51 18 -20 30 -79
16 -79 -11 0 -144 128 -182 175 -13 17 -48 57 -78 90 -102 112 -180 243 -240
403 -15 38 -17 54 -9 57 7 2 75 11 152 19 234 27 222 24 245 56 23 32 83 160
94 200 4 14 -16 -20 -43 -75 -28 -55 -57 -108 -64 -117 -10 -13 -46 -21 -140
-33 -69 -8 -159 -22 -198 -30 -66 -14 -74 -14 -97 1 -34 22 -71 66 -103 121
-15 25 -29 40 -33 35 -3 -6 10 -33 29 -62 19 -29 35 -56 35 -60 0 -19 -125 42
-185 89 -18 15 -19 15 -6 -1 11 -15 10 -22 -8 -46 -62 -87 -214 -198 -282
-206 -13 -1 -34 -8 -47 -15 -13 -7 -35 -11 -49 -9 -23 3 -36 21 -95 137 -38
74 -67 140 -64 147 3 7 1 14 -4 16 -5 2 -12 17 -16 33 l-7 30 27 -25 c15 -13
25 -29 23 -35 -3 -6 17 -9 57 -7 l61 3 70 -71 c42 -43 74 -85 82 -108 l12 -37
-5 40 c-4 34 -15 50 -82 112 -71 67 -80 72 -121 73 -31 0 -54 7 -78 26 -41 31
-57 61 -83 157 -16 59 -18 80 -10 103 9 23 7 37 -17 88 -27 60 -28 64 -28 256
1 209 17 310 66 419 12 25 21 56 20 69 -1 26 5 27 100 6 136 -31 233 -85 262
-146 29 -61 82 -125 159 -192 l78 -67 45 27 46 26 -17 26 c-22 34 -70 78 -116
108 -21 13 -38 32 -38 42 0 9 16 41 36 71 l36 53 -22 23 c-18 19 -20 27 -10
47 11 22 10 22 -5 4 -15 -19 -15 -19 -13 7 3 35 31 31 63 -9 34 -41 31 -15 -4
33 -38 52 -77 75 -181 106 -121 35 -140 39 -140 27 0 -6 -4 -9 -9 -6 -5 3 -76
8 -157 10 -132 3 -154 2 -186 -15z m77 1 c-11 -5 -27 -9 -35 -9 -13 -1 -13 0
0 9 8 5 24 9 35 9 l20 0 -20 -9z m441 -40 c46 -14 124 -61 124 -74 0 -5 -7 -3
-15 4 -10 9 -15 9 -16 1 -1 -6 -2 -15 -3 -21 0 -5 -4 -10 -8 -10 -5 0 -13 0
-20 0 -6 0 -4 6 5 13 15 10 10 12 -35 11 -42 -1 -56 4 -72 22 -19 20 -128 51
-204 57 -33 3 -31 21 3 27 35 7 185 -12 241 -30z m-293 23 c-7 -2 -19 -2 -25
0 -7 3 -2 5 12 5 14 0 19 -2 13 -5z m1647 -33 c0 -5 -5 -10 -11 -10 -5 0 -7 5
-4 10 3 6 8 10 11 10 2 0 4 -4 4 -10z m-380 -130 c-18 -16 -30 -30 -26 -30 3
0 2 -9 -4 -20 -6 -11 -16 -18 -22 -14 -6 4 -9 1 -6 -7 2 -7 -15 -40 -39 -74
-23 -33 -52 -77 -63 -97 -20 -37 -34 -46 -44 -30 -7 12 138 229 180 270 18 17
39 32 45 32 7 0 -3 -13 -21 -30z m-1473 -807 c-3 -10 -5 -4 -5 12 0 17 2 24 5
18 2 -7 2 -21 0 -30z m2263 -200 c-12 -50 -30 -81 -30 -52 0 7 -12 27 -26 46
-14 19 -24 36 -23 37 2 2 22 13 44 24 48 24 52 18 35 -55z m-2210 -108 c0 -5
-5 -3 -10 5 -5 8 -10 20 -10 25 0 6 5 3 10 -5 5 -8 10 -19 10 -25z m80 -183
c0 -7 -5 -10 -11 -6 -6 3 -3 -8 5 -25 9 -17 19 -31 22 -31 2 0 0 9 -6 21 -7
11 -9 23 -7 26 3 2 10 -5 17 -16 14 -27 -3 -60 -30 -58 -21 1 -26 12 -10 22 6
3 10 1 10 -4 0 -6 5 -11 11 -11 8 0 8 5 -1 15 -10 12 -16 13 -26 4 -19 -15
-53 25 -55 66 -2 35 -5 60 -14 95 -4 19 -3 21 3 6 7 -17 9 -17 15 -4 3 9 3 27
0 40 -2 12 13 -11 36 -52 22 -41 40 -81 41 -88z m-457 122 c18 -9 43 -25 56
-35 13 -11 32 -19 41 -19 30 0 42 -53 14 -64 -14 -5 -15 -4 -5 8 10 11 10 19
1 33 -10 16 -11 16 -6 1 8 -27 -11 -31 -34 -8 -11 11 -22 20 -24 20 -2 0 -23
18 -47 40 -47 43 -46 49 4 24z m1770 1 c-3 -9 -8 -14 -10 -11 -3 3 -2 9 2 15
9 16 15 13 8 -4z m-535 -125 c5 0 22 -35 37 -77 35 -100 72 -173 130 -257 52
-77 56 -101 5 -28 -19 26 -40 53 -47 60 -7 7 -13 17 -13 20 0 4 -10 18 -23 32
-13 14 -38 47 -56 73 -18 27 -53 71 -78 99 -34 39 -43 56 -38 72 4 11 7 29 6
39 0 16 4 16 34 -7 18 -14 38 -26 43 -26z m-728 -74 c0 -3 -4 -8 -10 -11 -5
-3 -10 -1 -10 4 0 6 5 11 10 11 6 0 10 -2 10 -4z m2966 -105 c-4 -6 -15 -11
-24 -10 -14 0 -13 2 3 9 11 5 14 9 7 9 -7 1 -10 6 -6 12 4 7 10 7 16 1 6 -6 7
-15 4 -21z m-249 -47 c-3 -3 -12 -4 -19 -1 -8 3 -5 6 6 6 11 1 17 -2 13 -5z
m-30 -20 c-3 -3 -12 -4 -19 -1 -8 3 -5 6 6 6 11 1 17 -2 13 -5z m-136 -28 l24
5 -23 -10 c-14 -7 -31 -7 -46 -1 -13 5 -27 6 -32 2 -4 -4 -4 -2 0 5 5 8 14 9
30 3 13 -5 34 -7 47 -4z m56 8 c-3 -3 -12 -4 -19 -1 -8 3 -5 6 6 6 11 1 17 -2
13 -5z m-247 -79 c-14 -8 -29 -14 -35 -14 -5 0 1 6 15 14 14 8 30 14 35 14 6
0 -1 -6 -15 -14z m-1327 -160 c29 -38 28 -38 -21 10 -29 27 -52 53 -52 59 0
13 36 -22 73 -69z m1126 -212 c1 -8 -11 -13 -28 -13 -25 0 -31 6 -49 53 -11
28 -35 85 -52 126 -17 41 -27 78 -23 82 4 4 22 9 38 11 l30 3 42 -125 c23 -69
42 -131 42 -137z"/>
<path d="M5250 8420 c-18 -12 -2 -12 25 0 13 6 15 9 5 9 -8 0 -22 -4 -30 -9z"/>
<path d="M4436 7096 c3 -8 12 -17 20 -20 12 -4 12 -2 4 14 -12 23 -32 27 -24
6z"/>
<path d="M2292 8490 c0 -14 2 -19 5 -12 2 6 2 18 0 25 -3 6 -5 1 -5 -13z"/>
<path d="M5902 8500 c37 -5 82 -16 100 -25 24 -11 29 -12 18 -2 -24 23 -79 37
-134 36 -50 -2 -50 -2 16 -9z"/>
<path d="M2301 8450 c-1 -9 8 -60 20 -115 12 -56 18 -112 15 -129 -9 -45 -36
-316 -35 -351 1 -28 36 237 39 300 2 23 7 13 26 -45 28 -87 29 -108 10 -171
-57 -188 -123 -662 -130 -939 l-5 -165 9 129 c24 342 91 801 147 999 5 20 23
13 23 -9 0 -27 88 -250 142 -361 81 -166 264 -466 340 -555 13 -15 34 -42 48
-60 100 -130 253 -293 406 -432 133 -121 164 -147 164 -140 0 3 -24 27 -52 52
-182 160 -434 427 -551 584 -292 393 -478 787 -566 1203 -36 167 -49 221 -50
205z"/>
<path d="M4005 8287 c-77 -41 -125 -75 -125 -89 0 -5 14 2 30 16 17 13 61 40
99 58 39 18 70 36 70 41 1 12 -12 8 -74 -26z"/>
<path d="M4249 8171 c29 -11 64 -27 77 -36 13 -8 24 -11 24 -6 0 12 -83 50
-123 57 -21 3 -14 -2 22 -15z"/>
<path d="M4285 8070 c-8 -13 5 -13 25 0 13 8 13 10 -2 10 -9 0 -20 -4 -23 -10z"/>
<path d="M5314 7905 c-4 -14 -4 -29 0 -32 3 -4 6 3 6 13 0 11 5 25 12 32 9 9
9 12 0 12 -6 0 -14 -11 -18 -25z"/>
<path d="M3560 7906 c0 -2 8 -10 18 -17 15 -13 16 -12 3 4 -13 16 -21 21 -21
13z"/>
<path d="M5723 7873 c37 -2 97 -2 135 0 37 2 6 3 -68 3 -74 0 -105 -1 -67 -3z"/>
<path d="M5960 7859 c14 -6 34 -18 45 -27 12 -9 8 -5 -7 11 -16 15 -36 27 -46
26 -12 0 -9 -3 8 -10z"/>
<path d="M5302 7830 c0 -19 2 -27 5 -17 2 9 2 25 0 35 -3 9 -5 1 -5 -18z"/>
<path d="M5437 7810 c-60 -21 -127 -50 -149 -65 -39 -26 -69 -76 -67 -112 0
-10 5 -2 11 17 5 19 19 46 31 59 24 26 108 66 207 100 63 21 106 41 85 40 -5
0 -59 -17 -118 -39z"/>
<path d="M5510 7766 c-74 -58 -106 -94 -124 -137 -20 -47 -8 -64 38 -56 34 5
36 5 25 -16 -9 -20 -8 -20 13 3 13 14 38 37 56 53 41 33 31 36 -12 4 -32 -24
-116 -43 -116 -26 0 29 47 94 111 153 39 36 70 66 68 66 -2 0 -29 -20 -59 -44z"/>
<path d="M2292 7770 c0 -14 2 -19 5 -12 2 6 2 18 0 25 -3 6 -5 1 -5 -13z"/>
<path d="M5940 7666 c0 -2 8 -10 18 -17 15 -13 16 -12 3 4 -13 16 -21 21 -21
13z"/>
<path d="M5666 7624 c-4 -14 -5 -28 -3 -31 3 -2 8 8 11 23 4 14 5 28 3 31 -3
2 -8 -8 -11 -23z"/>
<path d="M5855 7630 c25 -101 19 -118 -68 -209 -33 -34 -55 -61 -50 -61 13 0
136 129 151 157 8 14 9 24 2 28 -5 3 -10 18 -10 33 -1 15 -8 38 -16 52 l-15
25 6 -25z"/>
<path d="M5990 7600 c6 -11 13 -20 16 -20 2 0 0 9 -6 20 -6 11 -13 20 -16 20
-2 0 0 -9 6 -20z"/>
<path d="M5212 7590 c0 -14 2 -19 5 -12 2 6 2 18 0 25 -3 6 -5 1 -5 -13z"/>
<path d="M6332 7585 c0 -16 2 -22 5 -12 2 9 2 23 0 30 -3 6 -5 -1 -5 -18z"/>
<path d="M769 7585 c33 -45 118 -128 146 -141 l30 -15 -30 22 c-16 12 -59 52
-95 88 -36 36 -59 57 -51 46z"/>
<path d="M5686 7592 c-3 -5 8 -9 24 -9 16 0 39 -8 50 -18 11 -10 20 -13 20 -7
0 27 -80 56 -94 34z"/>
<path d="M6015 7555 c4 -11 12 -53 18 -94 10 -73 10 -74 -15 -95 -58 -49 -125
-91 -153 -97 l-30 -6 31 -2 c22 -1 51 12 91 38 92 62 97 69 91 149 -3 37 -13
81 -22 97 -10 17 -14 21 -11 10z"/>
<path d="M5202 7530 c0 -14 2 -19 5 -12 2 6 2 18 0 25 -3 6 -5 1 -5 -13z"/>
<path d="M6341 7522 c-1 -37 -22 -82 -46 -102 -9 -7 -25 -27 -36 -44 -11 -17
2 -6 30 24 55 59 65 81 58 126 -4 28 -4 28 -6 -4z"/>
<path d="M5718 7523 c-20 -24 -30 -53 -18 -53 6 0 10 5 10 12 0 6 10 22 22 35
12 13 17 23 11 23 -5 0 -17 -8 -25 -17z"/>
<path d="M5391 7485 c-17 -20 -31 -40 -31 -46 0 -17 20 -49 64 -104 22 -29 46
-60 51 -69 19 -34 168 -57 254 -40 42 9 40 30 -9 100 -35 50 -60 108 -73 169
-3 11 -3 -2 0 -30 4 -56 40 -139 79 -180 14 -15 22 -30 19 -33 -12 -12 -140
-14 -190 -3 -49 11 -56 17 -110 89 -32 42 -60 83 -62 90 -3 7 7 30 21 52 33
49 28 51 -13 5z"/>
<path d="M4290 7470 c-18 -12 -2 -12 25 0 13 6 15 9 5 9 -8 0 -22 -4 -30 -9z"/>
<path d="M1233 7438 c-37 -17 -91 -33 -130 -38 l-68 -9 65 3 c49 1 82 10 133
33 37 18 67 34 67 37 0 7 6 10 -67 -26z"/>
<path d="M968 7418 c12 -6 22 -14 22 -19 0 -4 9 -5 19 -2 12 3 17 11 14 19 -4
10 -9 11 -17 5 -7 -6 -17 -6 -26 -1 -8 6 -19 9 -25 9 -5 0 0 -5 13 -11z"/>
<path d="M5700 7426 c0 -3 9 -10 20 -16 11 -6 20 -8 20 -6 0 3 -9 10 -20 16
-11 6 -20 8 -20 6z"/>
<path d="M6090 7410 c-13 -9 -13 -10 0 -9 8 1 26 5 40 9 l25 8 -25 1 c-14 0
-32 -4 -40 -9z"/>
<path d="M6141 7364 c0 -11 3 -14 6 -6 3 7 2 16 -1 19 -3 4 -6 -2 -5 -13z"/>
<path d="M5805 7260 c-3 -5 -2 -10 4 -10 5 0 13 5 16 10 3 6 2 10 -4 10 -5 0
-13 -4 -16 -10z"/>
<path d="M6815 7164 c37 -19 69 -33 72 -30 6 5 -111 66 -128 66 -6 0 19 -16
56 -36z"/>
<path d="M3202 7005 c18 -24 37 -44 41 -45 5 0 -8 20 -29 45 -47 58 -54 58
-12 0z"/>
<path d="M3227 7015 c58 -75 322 -314 413 -374 21 -14 240 -175 278 -204 6 -5
12 -7 12 -4 0 3 -70 58 -156 122 -212 159 -318 248 -458 384 -66 64 -105 98
-89 76z"/>
<path d="M3259 6933 c6 -10 22 -31 36 -48 20 -23 19 -18 -6 18 -32 46 -49 63
-30 30z"/>
<path d="M4714 6908 c-3 -5 -1 -15 5 -21 9 -9 11 -8 6 5 -5 13 -2 15 14 11 12
-3 21 -3 21 0 0 10 -40 15 -46 5z"/>
<path d="M4770 6890 c-18 -12 -2 -12 25 0 13 6 15 9 5 9 -8 0 -22 -4 -30 -9z"/>
<path d="M5080 6890 c-21 -7 -21 -8 -5 -9 11 0 27 4 35 9 18 11 5 11 -30 0z"/>
<path d="M4850 6868 c11 -12 23 -18 27 -14 5 4 -1 14 -11 22 -30 21 -39 17
-16 -8z"/>
<path d="M4780 6870 c-8 -5 -10 -10 -5 -10 6 0 17 5 25 10 8 5 11 10 5 10 -5
0 -17 -5 -25 -10z"/>
<path d="M3375 6776 c10 -14 19 -26 22 -26 7 0 -17 39 -28 46 -6 3 -3 -5 6
-20z"/>
<path d="M1028 6705 c-5 -33 -10 -127 -12 -210 -2 -91 -1 -117 3 -65 l6 85 8
-100 c14 -174 38 -366 63 -505 26 -141 32 -166 39 -159 2 3 -9 74 -25 159 -42
226 -61 407 -69 644 -5 162 -8 197 -13 151z"/>
<path d="M6095 6670 c-72 -41 -73 -43 -68 -93 5 -42 3 -46 -23 -61 -16 -8 -24
-15 -19 -16 6 0 21 7 33 16 19 13 22 24 21 60 -3 50 -6 45 46 72 47 24 84 51
70 51 -5 0 -32 -13 -60 -29z"/>
<path d="M3470 6686 c0 -2 8 -10 18 -17 15 -13 16 -12 3 4 -13 16 -21 21 -21
13z"/>
<path d="M2235 6490 c6 -210 19 -380 39 -490 18 -100 19 -61 1 70 -8 58 -19
211 -25 340 -13 288 -21 330 -15 80z"/>
<path d="M5193 6615 c5 -19 22 -45 36 -57 14 -13 20 -16 13 -7 -6 9 -9 19 -5
22 3 4 1 7 -5 7 -7 0 -18 16 -26 35 -19 45 -27 45 -13 0z"/>
<path d="M4748 6613 c6 -2 18 -2 25 0 6 3 1 5 -13 5 -14 0 -19 -2 -12 -5z"/>
<path d="M3565 6570 c21 -22 41 -40 44 -40 3 0 -13 18 -34 40 -21 22 -41 40
-44 40 -3 0 13 -18 34 -40z"/>
<path d="M3645 6480 c10 -11 20 -20 23 -20 3 0 -3 9 -13 20 -10 11 -20 20 -23
20 -3 0 3 -9 13 -20z"/>
<path d="M5233 6401 c-29 -9 -55 -20 -59 -24 -12 -12 21 -8 65 8 l41 14 0 -44
c0 -25 6 -62 14 -82 8 -21 24 -78 36 -128 12 -49 29 -96 38 -102 35 -28 224 1
282 42 35 25 35 25 50 5 59 -78 207 -391 194 -411 -3 -5 -1 -9 5 -9 5 0 15
-17 21 -37 7 -21 16 -42 21 -48 34 -36 -123 336 -182 432 l-23 38 33 -28 c31
-25 102 -67 116 -67 19 0 -2 20 -37 36 -24 10 -69 46 -101 79 -42 43 -62 57
-71 50 -54 -40 -76 -50 -130 -62 -33 -7 -87 -13 -118 -13 -55 0 -57 1 -67 33
-6 17 -17 64 -25 102 -8 39 -22 88 -31 109 -12 28 -15 53 -10 83 3 24 3 43 -2
42 -4 -1 -31 -9 -60 -18z"/>
<path d="M3530 6396 c0 -2 14 -14 30 -26 17 -12 30 -19 30 -16 0 2 -13 14 -30
26 -16 12 -30 19 -30 16z"/>
<path d="M5486 6324 c-10 -14 -16 -28 -13 -30 2 -3 12 7 21 22 10 14 16 28 13
30 -2 3 -12 -7 -21 -22z"/>
<path d="M4085 6332 c10 -11 250 -163 289 -184 50 -25 -8 15 -124 87 -178 111
-176 110 -165 97z"/>
<path d="M1761 6264 c0 -11 3 -14 6 -6 3 7 2 16 -1 19 -3 4 -6 -2 -5 -13z"/>
<path d="M5461 6264 c0 -11 3 -14 6 -6 3 7 2 16 -1 19 -3 4 -6 -2 -5 -13z"/>
<path d="M7211 6169 c-11 -24 -34 -69 -52 -99 -19 -32 -25 -49 -15 -41 21 17
100 171 92 178 -3 3 -14 -14 -25 -38z"/>
<path d="M1753 6120 c0 -30 2 -43 4 -27 2 15 2 39 0 55 -2 15 -4 2 -4 -28z"/>
<path d="M4420 6126 c0 -3 9 -10 20 -16 11 -6 20 -8 20 -6 0 3 -9 10 -20 16
-11 6 -20 8 -20 6z"/>
<path d="M1014 6025 c0 -55 1 -76 3 -47 2 29 2 74 0 100 -2 26 -3 2 -3 -53z"/>
<path d="M2126 6071 c-4 -5 -2 -20 3 -33 9 -21 10 -21 10 10 1 32 -3 39 -13
23z"/>
<path d="M4510 6075 c0 -2 23 -16 50 -30 28 -14 50 -23 50 -20 0 2 -22 16 -50
30 -27 14 -50 23 -50 20z"/>
<path d="M1742 5785 c0 -158 3 -216 13 -235 12 -23 13 -20 8 35 -2 33 -8 139
-12 235 l-8 175 -1 -210z"/>
<path d="M6698 5955 c17 -22 106 -114 198 -205 l168 -165 -189 195 c-104 107
-193 200 -199 205 -5 6 4 -8 22 -30z"/>
<path d="M2142 5960 c0 -14 2 -19 5 -12 2 6 2 18 0 25 -3 6 -5 1 -5 -13z"/>
<path d="M7121 5954 c0 -11 3 -14 6 -6 3 7 2 16 -1 19 -3 4 -6 -2 -5 -13z"/>
<path d="M2076 5898 c-68 -242 -110 -452 -120 -603 l-5 -80 10 65 c32 212 53
321 85 453 21 81 40 147 43 147 4 0 11 -21 18 -47 14 -60 54 -166 59 -160 3 2
-4 27 -15 54 -25 65 -51 187 -44 213 3 11 1 20 -4 20 -5 0 -17 -28 -27 -62z"/>
<path d="M4770 5940 c19 -11 40 -19 45 -19 6 0 -6 8 -25 19 -19 11 -39 19 -45
19 -5 0 6 -8 25 -19z"/>
<path d="M5930 5930 c8 -5 24 -9 35 -9 l20 0 -20 9 c-11 5 -27 9 -35 9 -13 1
-13 0 0 -9z"/>
<path d="M2291 5894 c0 -11 3 -14 6 -6 3 7 2 16 -1 19 -3 4 -6 -2 -5 -13z"/>
<path d="M4860 5906 c0 -2 37 -19 83 -37 l82 -34 -70 -7 c-38 -4 -86 -10 -105
-13 -33 -7 -34 -7 -15 -22 26 -19 300 -153 385 -188 65 -27 104 -41 295 -109
l100 -35 28 30 c16 17 25 35 20 39 -4 4 -37 17 -73 29 -61 20 -124 50 -108 51
4 0 31 -9 60 -21 87 -34 140 -51 145 -45 5 5 -112 68 -209 113 -59 27 -61 38
-7 29 26 -4 38 -3 34 4 -4 6 9 10 32 11 48 1 36 6 -107 49 -198 61 -234 70
-310 79 -42 6 -115 26 -165 46 -96 37 -95 37 -95 31z"/>
<path d="M6174 5896 c8 -24 32 -228 42 -366 4 -58 10 -96 12 -85 12 57 -32
444 -53 463 -5 4 -5 -2 -1 -12z"/>
<path d="M1023 5835 c0 -27 2 -38 4 -22 2 15 2 37 0 50 -2 12 -4 0 -4 -28z"/>
<path d="M2302 5845 c0 -16 2 -22 5 -12 2 9 2 23 0 30 -3 6 -5 -1 -5 -18z"/>
<path d="M6669 5787 c24 -62 110 -178 224 -302 77 -83 52 -36 -29 55 -41 47
-102 126 -136 175 -71 106 -72 108 -59 72z"/>
<path d="M4735 5784 c-22 -8 -54 -21 -72 -29 -17 -8 -34 -15 -38 -15 -11 0
-115 -74 -115 -83 0 -4 17 4 37 17 20 14 38 24 40 22 2 -2 -30 -38 -72 -81
-46 -46 -75 -84 -73 -94 2 -9 -4 -28 -13 -42 -28 -44 -29 -48 -20 -54 6 -3 27
11 48 30 32 31 120 85 138 85 3 0 0 -10 -6 -22 -29 -53 -4 -343 35 -428 9 -19
14 -26 10 -15 -13 46 -34 158 -33 178 1 21 1 21 8 -2 6 -24 31 -42 31 -23 0
11 18 11 38 -1 7 -5 12 -3 12 4 0 7 11 2 25 -11 16 -15 23 -30 20 -44 -4 -14
6 -33 31 -61 21 -24 33 -32 29 -20 -18 52 -19 59 -2 52 10 -4 17 -1 17 5 0 7
7 3 15 -8 8 -10 15 -15 15 -10 0 5 9 -3 21 -18 23 -29 44 -34 53 -11 3 8 10
15 16 15 6 0 8 -6 4 -12 -6 -9 -3 -9 9 0 14 12 16 11 12 -10 -3 -12 -12 -29
-22 -35 -22 -17 -10 -16 30 0 39 17 78 89 85 157 3 36 9 48 28 57 20 9 24 8
25 -5 0 -14 1 -15 7 -2 4 8 17 16 30 17 22 3 22 1 18 -65 -4 -52 -4 -58 3 -27
5 22 12 77 15 123 7 74 6 83 -11 88 -10 3 -37 14 -61 25 -51 23 -58 24 -42 3
11 -12 10 -18 -3 -31 -13 -13 -19 -14 -31 -3 -20 16 -20 39 -1 46 10 4 12 11
5 23 -23 44 34 96 78 72 30 -16 34 -14 22 10 -7 11 -10 22 -8 24 8 8 113 -35
170 -70 90 -56 108 -74 115 -118 4 -26 9 -34 14 -25 5 7 9 9 9 3 0 -5 4 -5 8
2 4 7 28 14 54 16 38 3 45 0 41 -12 -3 -9 11 2 31 24 19 22 36 43 36 46 0 4
-21 12 -46 18 -99 25 -384 146 -614 259 -85 43 -157 78 -160 79 -3 1 -23 -5
-45 -13z m190 -494 c8 -13 -3 -50 -15 -50 -12 0 -20 28 -14 45 7 17 20 20 29
5z"/>
<path d="M7145 5760 c3 -19 8 -36 11 -39 9 -9 3 45 -6 59 -8 11 -9 5 -5 -20z"/>
<path d="M1033 5730 c0 -25 2 -35 4 -22 2 12 2 32 0 45 -2 12 -4 2 -4 -23z"/>
<path d="M6630 5644 c0 -54 5 -139 10 -189 12 -100 47 -262 59 -270 5 -2 0 30
-10 72 -10 41 -23 126 -29 187 -10 111 -12 209 -3 171 25 -104 190 -561 200
-552 2 2 -21 67 -51 143 -30 77 -61 164 -69 194 -22 82 -99 334 -103 339 -2 2
-4 -40 -4 -95z"/>
<path d="M5850 5686 c0 -2 7 -6 15 -10 8 -3 15 -1 15 4 0 6 -7 10 -15 10 -8 0
-15 -2 -15 -4z"/>
<path d="M7162 5670 c0 -14 2 -19 5 -12 2 6 2 18 0 25 -3 6 -5 1 -5 -13z"/>
<path d="M1041 5659 c-1 -37 24 -182 55 -318 20 -85 29 -110 36 -98 15 27 31
20 24 -10 -4 -19 -3 -23 3 -13 14 24 22 70 12 70 -5 0 -14 -7 -21 -15 -20 -24
-25 -18 -38 43 -11 56 -11 58 28 134 l39 77 26 -80 c29 -87 44 -104 20 -23 -8
27 -20 68 -25 92 -6 23 -15 40 -19 37 -5 -2 -25 -39 -45 -81 -20 -42 -39 -75
-41 -72 -3 3 -16 67 -29 144 -14 76 -25 127 -25 113z"/>
<path d="M6323 5590 c0 -47 2 -66 4 -42 2 23 2 61 0 85 -2 23 -4 4 -4 -43z"/>
<path d="M2170 5651 c0 -6 4 -13 10 -16 6 -3 7 1 4 9 -7 18 -14 21 -14 7z"/>
<path d="M7170 5588 c0 -7 12 -22 27 -32 l26 -19 -23 31 c-26 35 -30 38 -30
20z"/>
<path d="M2670 5586 c0 -4 26 -35 58 -69 60 -65 40 -54 -40 21 -45 43 -48 44
-95 38 -26 -4 -85 -19 -130 -33 -68 -22 -83 -31 -83 -48 0 -15 -2 -17 -9 -6
-6 9 -16 11 -32 5 -13 -4 -28 -8 -34 -9 -5 0 -9 -9 -7 -19 2 -11 -1 -15 -7
-11 -15 9 -123 -54 -118 -69 2 -6 18 -10 36 -8 17 1 31 0 31 -2 0 -3 -44 -37
-97 -77 -54 -39 -102 -75 -108 -80 -10 -10 69 -96 138 -151 28 -22 35 -25 30
-11 -6 16 -5 16 10 4 12 -9 21 -10 30 -3 13 11 46 10 65 -2 9 -5 12 4 12 34 0
37 6 47 63 103 74 73 90 86 140 110 54 25 58 22 40 -25 -20 -57 -18 -167 6
-243 16 -51 20 -55 21 -30 1 18 4 23 7 13 5 -21 23 -24 23 -4 0 23 28 39 56
32 21 -6 25 -12 22 -31 -4 -17 4 -34 24 -57 16 -18 27 -25 24 -16 -6 19 19 45
28 29 4 -6 13 -8 21 -4 8 3 15 1 15 -5 0 -6 8 -9 18 -7 9 1 25 -6 35 -16 12
-13 26 -17 47 -13 16 4 37 3 46 0 15 -6 15 -8 -2 -28 -19 -21 -19 -21 2 -10
36 19 73 70 79 110 10 57 24 85 40 78 8 -3 19 3 24 12 10 16 10 16 11 0 0 -10
7 -18 16 -18 13 0 15 -13 10 -92 -3 -58 -2 -82 3 -63 10 35 13 230 5 262 -4
14 -16 22 -37 25 -18 3 -39 8 -48 12 -12 5 -18 1 -22 -14 -5 -18 -8 -19 -31
-9 -33 16 -42 39 -16 46 22 6 26 18 10 28 -27 17 5 65 43 65 12 0 33 -6 48
-13 24 -13 25 -13 21 15 l-4 29 55 -25 c30 -13 72 -36 93 -50 21 -14 40 -24
42 -21 7 7 -26 47 -53 65 -15 10 -27 21 -27 26 0 5 -4 15 -10 22 -7 8 -7 12 1
12 24 0 8 17 -64 70 -41 30 -71 56 -65 58 5 2 18 -1 29 -7 11 -6 23 -11 28
-11 17 1 -92 53 -141 67 -53 15 -326 31 -326 19z m254 -482 c3 -8 0 -22 -8
-30 -20 -20 -26 -18 -26 9 0 37 23 51 34 21z"/>
<path d="M7107 5555 c-3 -16 -9 -48 -11 -70 -4 -32 -2 -29 9 15 8 30 13 62 12
70 -2 8 -6 2 -10 -15z"/>
<path d="M841 5534 c0 -11 3 -14 6 -6 3 7 2 16 -1 19 -3 4 -6 -2 -5 -13z"/>
<path d="M7173 5475 c0 -27 2 -38 4 -22 2 15 2 37 0 50 -2 12 -4 0 -4 -28z"/>
<path d="M851 5494 c0 -11 3 -14 6 -6 3 7 2 16 -1 19 -3 4 -6 -2 -5 -13z"/>
<path d="M1752 5450 c0 -19 2 -27 5 -17 2 9 2 25 0 35 -3 9 -5 1 -5 -18z"/>
<path d="M5191 5458 c12 -27 86 -63 86 -42 0 7 -5 10 -10 7 -5 -3 -12 -2 -16
3 -3 5 -21 19 -38 32 l-33 22 11 -22z"/>
<path d="M861 5444 c0 -11 3 -14 6 -6 3 7 2 16 -1 19 -3 4 -6 -2 -5 -13z"/>
<path d="M5801 5434 c-45 -19 -37 -25 15 -12 23 6 50 8 60 4 19 -7 19 -8 0
-22 -25 -18 -14 -29 13 -14 12 6 25 9 30 6 4 -3 17 1 27 9 18 14 18 14 -2 15
-12 0 -35 7 -50 15 -36 18 -50 18 -93 -1z"/>
<path d="M7070 5389 c-13 -44 -19 -53 -35 -51 -16 3 -17 1 -6 -12 8 -10 10
-26 6 -47 -10 -46 -81 -231 -110 -289 -14 -27 -21 -51 -16 -54 5 -3 23 27 41
67 44 98 142 396 138 420 -2 11 -10 -4 -18 -34z"/>
<path d="M1781 5414 c0 -11 3 -14 6 -6 3 7 2 16 -1 19 -3 4 -6 -2 -5 -13z"/>
<path d="M871 5404 c-1 -7 10 -51 24 -98 14 -47 25 -93 25 -102 0 -9 -25 -53
-56 -97 -31 -45 -45 -70 -32 -56 12 15 39 50 58 77 19 28 37 51 40 52 3 0 13
-21 22 -47 l17 -48 -37 -40 c-76 -82 -95 -105 -91 -109 3 -3 34 28 69 69 35
41 68 71 73 68 5 -3 8 -2 6 4 -21 50 -91 249 -103 288 -7 28 -14 45 -15 39z"/>
<path d="M6090 5406 c0 -2 8 -10 18 -17 15 -13 16 -12 3 4 -13 16 -21 21 -21
13z"/>
<path d="M5696 5356 c-67 -71 -164 -254 -180 -341 -4 -16 5 1 19 39 35 97 112
230 169 293 26 29 44 53 40 53 -4 0 -26 -20 -48 -44z"/>
<path d="M6333 5355 c0 -27 2 -38 4 -22 2 15 2 37 0 50 -2 12 -4 0 -4 -28z"/>
<path d="M3220 5380 c0 -5 5 -10 10 -10 6 0 10 5 10 10 0 6 -4 10 -10 10 -5 0
-10 -4 -10 -10z"/>
<path d="M5780 5333 c-125 -142 -203 -384 -214 -663 -4 -83 -3 -101 4 -65 4
28 9 75 9 106 2 97 46 302 88 404 30 72 92 170 133 210 22 21 40 43 40 47 0
19 -21 5 -60 -39z"/>
<path d="M6127 5350 c3 -14 12 -41 20 -60 11 -30 12 -31 8 -6 -4 16 -13 43
-20 60 -11 23 -13 25 -8 6z"/>
<path d="M1762 5325 c0 -16 2 -22 5 -12 2 9 2 23 0 30 -3 6 -5 -1 -5 -18z"/>
<path d="M7156 5262 c-3 -48 -15 -123 -25 -167 -11 -44 -18 -81 -16 -83 5 -5
23 62 31 111 4 20 9 37 13 37 16 0 131 -181 193 -304 35 -69 39 -84 33 -122
-3 -26 -2 -44 3 -44 29 0 43 218 21 320 -16 74 -21 55 -9 -31 6 -41 8 -96 4
-123 l-6 -48 -48 91 c-27 50 -80 136 -119 191 l-70 100 6 80 c3 44 4 80 1 80
-3 0 -8 -39 -12 -88z"/>
<path d="M6331 5284 c0 -11 3 -14 6 -6 3 7 2 16 -1 19 -3 4 -6 -2 -5 -13z"/>
<path d="M6362 5270 c0 -14 2 -19 5 -12 2 6 2 18 0 25 -3 6 -5 1 -5 -13z"/>
<path d="M6161 5234 c0 -11 3 -14 6 -6 3 7 2 16 -1 19 -3 4 -6 -2 -5 -13z"/>
<path d="M6371 5224 c-1 -38 56 -192 112 -303 15 -30 27 -61 27 -70 0 -9 3
-11 9 -5 6 5 -12 53 -45 121 -29 61 -65 149 -78 195 -14 45 -25 74 -25 62z"/>
<path d="M1130 5191 c0 -6 5 -13 10 -16 6 -3 10 1 10 9 0 9 -4 16 -10 16 -5 0
-10 -4 -10 -9z"/>
<path d="M1941 5174 c0 -11 3 -14 6 -6 3 7 2 16 -1 19 -3 4 -6 -2 -5 -13z"/>
<path d="M5132 5116 c-6 -15 -12 -32 -12 -39 0 -7 -7 -25 -15 -41 -9 -16 -13
-31 -10 -34 8 -8 57 106 53 125 -2 13 -6 10 -16 -11z"/>
<path d="M1040 5114 c0 -8 79 -101 123 -146 87 -86 196 -148 263 -148 21 0 25
-4 19 -17 -14 -38 -56 -225 -52 -236 3 -10 15 31 57 190 8 34 19 47 48 63 l37
21 -43 -7 c-48 -7 -129 10 -182 37 -58 30 -144 104 -209 179 -34 39 -61 68
-61 64z"/>
<path d="M7512 4979 c21 -67 44 -157 51 -200 6 -44 15 -79 20 -79 20 0 -23
202 -69 322 -43 113 -44 86 -2 -43z"/>
<path d="M6703 5046 c3 -35 0 -41 -35 -63 -48 -32 -50 -42 -2 -13 19 12 37 20
40 17 5 -5 1 -30 -36 -228 -34 -185 -125 -440 -248 -699 -151 -320 -182 -406
-201 -575 -12 -103 -2 -256 25 -358 18 -69 81 -213 90 -205 3 4 -3 23 -14 45
-59 117 -98 315 -87 443 15 189 55 329 142 510 132 274 155 325 197 438 59
157 102 310 115 401 10 74 32 125 26 60 -4 -46 -8 -241 -5 -254 4 -17 18 77
19 127 1 26 5 49 10 53 5 3 24 24 41 48 l32 42 -36 -37 c-20 -21 -38 -38 -41
-38 -3 0 -5 55 -6 123 0 76 -6 137 -14 162 l-14 40 2 -39z"/>
<path d="M990 5056 c0 -4 10 -25 21 -46 l22 -39 -57 -92 c-31 -50 -55 -94 -52
-96 2 -2 28 34 57 81 30 47 56 85 59 85 3 1 23 -21 44 -47 22 -26 54 -58 70
-72 19 -15 11 -3 -19 31 -48 53 -77 93 -123 169 -12 19 -22 31 -22 26z"/>
<path d="M1830 5050 c8 -5 20 -10 25 -10 6 0 3 5 -5 10 -8 5 -19 10 -25 10 -5
0 -3 -5 5 -10z"/>
<path d="M1988 5044 c-26 -8 -50 -19 -53 -24 -4 -6 -18 -2 -36 10 -16 12 -29
17 -29 11 0 -6 5 -11 10 -11 6 0 21 -10 34 -23 18 -18 34 -23 72 -23 95 0 240
-102 331 -233 57 -81 74 -99 43 -46 -67 114 -160 207 -261 260 -48 25 -84 37
-110 37 -22 -1 -39 3 -39 8 0 18 74 32 139 27 36 -2 57 -1 46 3 -44 16 -102
18 -147 4z"/>
<path d="M2216 5000 c32 -16 88 -56 124 -87 60 -54 62 -55 28 -15 -43 52 -89
87 -143 113 -65 30 -73 21 -9 -11z"/>
<path d="M7096 4985 c-9 -26 -7 -32 5 -12 6 10 9 21 6 23 -2 3 -7 -2 -11 -11z"/>
<path d="M6780 4983 c0 -5 19 -20 43 -33 23 -12 50 -30 59 -38 15 -12 22 -13
40 -3 13 6 15 9 6 7 -16 -5 -71 22 -125 61 -13 8 -23 11 -23 6z"/>
<path d="M746 4940 c-14 -22 -26 -43 -26 -47 0 -4 6 1 13 12 33 48 49 75 44
75 -2 0 -16 -18 -31 -40z"/>
<path d="M5036 4950 c-16 -17 -34 -30 -39 -30 -6 0 -19 -8 -29 -17 -15 -14
-36 -17 -96 -16 -68 1 -74 -1 -57 -13 27 -20 145 -19 145 1 0 8 9 15 19 15 22
0 76 42 92 71 15 28 -2 23 -35 -11z"/>
<path d="M5501 4964 c0 -11 3 -14 6 -6 3 7 2 16 -1 19 -3 4 -6 -2 -5 -13z"/>
<path d="M6599 4933 c-13 -16 -12 -17 4 -4 9 7 17 15 17 17 0 8 -8 3 -21 -13z"/>
<path d="M1623 4895 c0 -27 2 -38 4 -22 2 15 2 37 0 50 -2 12 -4 0 -4 -28z"/>
<path d="M6141 4913 c-10 -26 -10 -27 4 -9 8 11 15 23 15 28 0 15 -7 8 -19
-19z"/>
<path d="M7067 4922 c-19 -20 -22 -32 -9 -32 5 0 14 11 20 25 14 30 11 31 -11
7z"/>
<path d="M5491 4914 c0 -11 3 -14 6 -6 3 7 2 16 -1 19 -3 4 -6 -2 -5 -13z"/>
<path d="M6978 4923 c7 -3 16 -2 19 1 4 3 -2 6 -13 5 -11 0 -14 -3 -6 -6z"/>
<path d="M1462 4900 c0 -14 2 -19 5 -12 2 6 2 18 0 25 -3 6 -5 1 -5 -13z"/>
<path d="M4740 4911 c0 -10 24 -21 43 -21 7 0 3 7 -7 15 -22 17 -36 19 -36 6z"/>
<path d="M6381 4884 c0 -11 3 -14 6 -6 3 7 2 16 -1 19 -3 4 -6 -2 -5 -13z"/>
<path d="M7086 4875 c4 -8 11 -15 16 -15 6 0 5 6 -2 15 -7 8 -14 15 -16 15 -2
0 -1 -7 2 -15z"/>
<path d="M2626 4838 c23 -45 55 -90 61 -85 5 5 -65 117 -73 117 -2 0 3 -15 12
-32z"/>
<path d="M6391 4834 c0 -11 3 -14 6 -6 3 7 2 16 -1 19 -3 4 -6 -2 -5 -13z"/>
<path d="M7118 4834 c13 -24 40 -49 47 -42 3 2 -9 18 -26 34 -24 22 -29 24
-21 8z"/>
<path d="M6328 4813 c7 -3 16 -2 19 1 4 3 -2 6 -13 5 -11 0 -14 -3 -6 -6z"/>
<path d="M6274 4796 c-10 -8 -17 -17 -14 -19 3 -3 16 3 29 14 27 22 15 26 -15
5z"/>
<path d="M6401 4801 c-1 -8 9 -25 20 -37 l22 -23 -28 -47 c-24 -42 -29 -63
-36 -163 -9 -140 -10 -186 -4 -180 2 3 9 69 14 148 8 114 15 152 32 185 30 58
41 88 29 81 -11 -7 -33 12 -43 35 -4 13 -6 13 -6 1z"/>
<path d="M1395 4780 c-16 -7 -17 -9 -3 -9 9 -1 20 4 23 9 7 11 7 11 -20 0z"/>
<path d="M6045 4780 c-3 -6 -8 -24 -10 -40 -2 -16 -9 -56 -15 -90 -6 -34 -9
-64 -6 -67 3 -3 8 13 12 36 4 23 11 44 15 47 5 3 7 9 4 14 -3 5 -1 30 5 56 11
46 8 66 -5 44z"/>
<path d="M5922 4745 c-29 -45 -22 -45 12 0 15 19 23 35 19 35 -4 0 -18 -16
-31 -35z"/>
<path d="M875 4713 c-16 -26 -35 -58 -43 -70 -8 -13 -12 -23 -9 -23 7 0 88
132 84 137 -3 2 -17 -18 -32 -44z"/>
<path d="M3050 4735 c-21 -25 -118 -67 -161 -69 -52 -3 -78 -26 -29 -26 53 1
113 17 126 34 6 9 18 16 26 16 16 0 64 47 56 55 -3 3 -11 -2 -18 -10z"/>
<path d="M7119 4723 c-13 -16 -12 -17 4 -4 9 7 17 15 17 17 0 8 -8 3 -21 -13z"/>
<path d="M6260 4721 c0 -6 4 -13 10 -16 6 -3 7 1 4 9 -7 18 -14 21 -14 7z"/>
<path d="M2720 4717 c0 -8 76 -57 88 -57 24 0 11 16 -31 34 -23 11 -45 22 -49
24 -5 2 -8 2 -8 -1z"/>
<path d="M1780 4663 c11 -15 31 -33 43 -42 12 -8 4 4 -18 27 -46 48 -56 54
-25 15z"/>
<path d="M1714 4630 c28 -34 29 -36 23 -132 -3 -54 -3 -98 -1 -98 2 0 7 14 11
31 8 28 11 21 31 -67 23 -102 76 -224 101 -232 10 -3 7 6 -8 26 -43 61 -90
219 -106 360 -5 48 4 68 20 42 3 -5 16 -15 28 -21 26 -13 25 -12 -68 72 -42
38 -51 44 -31 19z"/>
<path d="M7039 4633 l-24 -28 28 24 c15 14 27 26 27 28 0 8 -8 1 -31 -24z"/>
<path d="M5884 4603 c-65 -62 -96 -104 -39 -53 47 42 91 90 82 90 -2 0 -21
-17 -43 -37z"/>
<path d="M7400 4631 c0 -5 5 -13 10 -16 6 -3 10 -2 10 4 0 5 -4 13 -10 16 -5
3 -10 2 -10 -4z"/>
<path d="M6601 4614 c0 -11 3 -14 6 -6 3 7 2 16 -1 19 -3 4 -6 -2 -5 -13z"/>
<path d="M5646 4593 c-2 -10 -7 -34 -10 -53 -8 -44 8 -11 17 38 7 34 2 45 -7
15z"/>
<path d="M6063 4560 c0 -25 2 -35 4 -22 2 12 2 32 0 45 -2 12 -4 2 -4 -23z"/>
<path d="M790 4570 c-6 -11 -8 -20 -6 -20 3 0 10 9 16 20 6 11 8 20 6 20 -3 0
-10 -9 -16 -20z"/>
<path d="M7475 4570 c10 -11 20 -20 23 -20 3 0 -3 9 -13 20 -10 11 -20 20 -23
20 -3 0 3 -9 13 -20z"/>
<path d="M5666 4561 c-4 -5 3 -7 14 -4 23 6 26 13 6 13 -8 0 -17 -4 -20 -9z"/>
<path d="M2225 4526 c10 -14 19 -26 22 -26 7 0 -17 39 -28 46 -6 3 -3 -5 6
-20z"/>
<path d="M6311 4538 c-1 -9 8 -62 19 -118 34 -172 24 -221 -66 -321 -81 -89
-196 -254 -165 -235 6 4 22 27 36 51 14 24 32 46 40 49 8 3 15 12 15 20 0 8
30 48 68 88 37 40 77 89 88 108 23 38 39 157 22 162 -5 2 -20 51 -33 108 -13
58 -23 97 -24 88z"/>
<path d="M1870 4500 c19 -17 48 -39 64 -48 l28 -17 -5 -90 c-2 -49 -1 -79 3
-65 5 14 8 49 9 79 1 46 3 52 18 47 31 -12 -21 36 -89 82 -49 33 -55 36 -28
12z"/>
<path d="M1995 4520 c7 -11 65 -43 65 -36 0 2 -16 13 -36 25 -19 12 -32 16
-29 11z"/>
<path d="M6072 4358 c-1 -86 -5 -165 -8 -175 -5 -16 -5 -17 6 -1 7 11 9 72 7
175 l-3 158 -2 -157z"/>
<path d="M5571 4474 c0 -11 3 -14 6 -6 3 7 2 16 -1 19 -3 4 -6 -2 -5 -13z"/>
<path d="M2077 4469 c7 -7 15 -10 18 -7 3 3 -2 9 -12 12 -14 6 -15 5 -6 -5z"/>
<path d="M2214 4453 c16 -3 46 -23 70 -46 48 -48 178 -261 171 -280 -6 -13 33
-42 43 -33 3 3 -2 14 -10 23 -8 10 -32 47 -53 83 -109 185 -159 260 -166 248
-7 -10 -11 -10 -21 0 -6 6 -23 11 -37 11 -25 -2 -24 -2 3 -6z"/>
<path d="M6649 4348 c-12 -51 -35 -128 -51 -172 -16 -43 -27 -80 -25 -83 2 -2
17 25 32 59 23 53 29 60 35 43 6 -14 9 -6 9 31 1 28 7 73 15 100 20 72 27 114
17 114 -5 0 -19 -42 -32 -92z"/>
<path d="M5708 4398 c-13 -18 -31 -45 -41 -60 -9 -15 -30 -29 -47 -33 -16 -4
-30 -10 -30 -15 0 -5 17 -2 38 7 27 11 47 31 74 74 41 65 44 77 6 27z"/>
<path d="M7212 4408 c-14 -18 -46 -85 -35 -73 14 15 55 85 50 85 -2 0 -9 -6
-15 -12z"/>
<path d="M852 4390 c0 -14 2 -19 5 -12 2 6 2 18 0 25 -3 6 -5 1 -5 -13z"/>
<path d="M5584 4385 c-3 -8 -4 -20 -2 -27 3 -7 7 -1 10 15 6 29 1 36 -8 12z"/>
<path d="M6878 4283 c2 -60 6 -110 8 -112 2 -2 4 46 4 107 0 62 -4 112 -8 112
-4 0 -6 -48 -4 -107z"/>
<path d="M836 4305 c-16 -148 -18 -170 -12 -164 7 7 30 209 23 215 -2 3 -7
-20 -11 -51z"/>
<path d="M1685 4155 c7 -222 28 -336 73 -387 27 -32 34 -19 8 15 -37 48 -57
157 -63 342 -3 88 -9 167 -14 175 -5 9 -7 -53 -4 -145z"/>
<path d="M7158 4280 c2 -16 6 -30 8 -30 2 0 4 14 4 30 0 17 -4 30 -8 30 -5 0
-7 -13 -4 -30z"/>
<path d="M1592 4193 c-29 -225 -23 -384 20 -545 21 -80 66 -161 99 -179 14 -7
9 4 -15 35 -19 25 -44 71 -56 102 -46 124 -62 354 -39 564 14 125 6 143 -9 23z"/>
<path d="M2170 4263 c13 -10 35 -27 49 -39 l25 -21 -29 -67 c-15 -36 -26 -68
-23 -71 2 -3 15 21 28 53 29 71 35 79 55 62 17 -14 137 -42 130 -30 -3 5 -27
11 -54 15 -36 5 -61 17 -97 47 -26 22 -62 46 -79 54 l-30 14 25 -17z"/>
<path d="M7163 4165 c0 -44 2 -61 4 -37 2 23 2 59 0 80 -2 20 -4 1 -4 -43z"/>
<path d="M5532 4210 c-8 -13 -8 -20 -2 -20 6 0 13 7 17 15 9 24 -1 27 -15 5z"/>
<path d="M6361 4164 c0 -11 3 -14 6 -6 3 7 2 16 -1 19 -3 4 -6 -2 -5 -13z"/>
<path d="M5445 4145 c-16 -7 -30 -17 -30 -22 0 -4 -25 -24 -56 -43 -63 -39
-96 -67 -149 -125 -19 -22 -1 -8 41 30 68 63 175 133 185 122 4 -4 -53 -106
-136 -242 -52 -83 -175 -229 -222 -261 -16 -10 -28 -26 -28 -34 0 -18 98 77
157 153 25 32 48 56 51 52 3 -3 15 12 26 35 41 78 150 230 157 218 6 -9 19 29
24 72 0 3 4 11 8 18 5 8 2 12 -9 12 -16 0 -16 1 2 15 23 17 18 18 -21 0z"/>
<path d="M6892 4120 c0 -19 2 -27 5 -17 2 9 2 25 0 35 -3 9 -5 1 -5 -18z"/>
<path d="M6352 4110 c0 -19 2 -27 5 -17 2 9 2 25 0 35 -3 9 -5 1 -5 -18z"/>
<path d="M5355 4115 c-25 -12 -26 -14 -5 -9 28 7 60 23 45 23 -5 0 -23 -6 -40
-14z"/>
<path d="M6660 4115 c0 -19 31 -97 37 -92 5 5 -27 107 -33 107 -2 0 -4 -7 -4
-15z"/>
<path d="M825 3975 c3 -123 8 -167 29 -243 31 -110 80 -233 107 -265 13 -15 9
-2 -11 39 -67 139 -103 291 -119 499 l-10 120 4 -150z"/>
<path d="M2141 4084 c0 -11 3 -14 6 -6 3 7 2 16 -1 19 -3 4 -6 -2 -5 -13z"/>
<path d="M5275 4090 c-13 -5 -14 -9 -5 -9 8 0 24 4 35 9 13 5 14 9 5 9 -8 0
-24 -4 -35 -9z"/>
<path d="M2380 4082 c0 -7 6 -15 14 -18 12 -5 11 -12 -6 -42 l-21 -37 26 30
c24 29 26 29 44 12 11 -9 28 -17 39 -16 15 0 13 3 -8 13 -15 6 -41 25 -58 41
-16 16 -30 23 -30 17z"/>
<path d="M1265 4018 c-59 -126 -85 -192 -85 -212 1 -12 12 7 25 41 13 35 41
98 62 140 21 43 39 81 41 86 2 4 0 7 -5 7 -4 0 -22 -28 -38 -62z"/>
<path d="M4487 4069 c7 -7 15 -10 18 -7 3 3 -2 9 -12 12 -14 6 -15 5 -6 -5z"/>
<path d="M5214 4064 c-18 -14 -18 -14 6 -3 31 14 36 19 24 19 -6 0 -19 -7 -30
-16z"/>
<path d="M6542 4043 c-11 -21 -31 -85 -46 -143 -15 -58 -32 -118 -38 -135 -41
-127 -70 -540 -49 -709 26 -202 87 -346 166 -388 11 -6 1 10 -22 36 -52 59
-69 94 -99 214 -21 79 -26 128 -30 262 -2 91 -1 158 2 150 38 -88 96 -202 100
-197 3 3 -17 57 -45 119 -44 99 -51 123 -50 174 1 32 4 72 8 88 6 27 7 26 25
-28 11 -31 23 -56 28 -56 10 0 11 -3 -12 58 -32 84 -27 179 19 363 21 85 46
171 54 192 21 48 13 48 -11 0z"/>
<path d="M2531 4067 c2 -1 13 -9 24 -17 19 -14 19 -14 6 3 -7 9 -18 17 -24 17
-6 0 -8 -1 -6 -3z"/>
<path d="M6341 4054 c0 -11 3 -14 6 -6 3 7 2 16 -1 19 -3 4 -6 -2 -5 -13z"/>
<path d="M4529 4042 c6 -11 7 -22 4 -26 -3 -3 -2 -6 4 -6 20 0 21 26 1 39 -17
11 -18 10 -9 -7z"/>
<path d="M5140 4019 l-35 -30 40 27 c22 16 42 29 44 31 2 2 0 3 -5 3 -5 0 -25
-14 -44 -31z"/>
<path d="M2605 4024 c45 -26 168 -75 173 -69 3 3 3 5 1 5 -3 0 -43 16 -89 36
-105 44 -123 50 -85 28z"/>
<path d="M3794 4026 c-18 -8 -34 -18 -38 -24 -3 -5 12 0 34 10 22 11 40 22 40
24 0 5 0 5 -36 -10z"/>
<path d="M6331 4014 c0 -11 3 -14 6 -6 3 7 2 16 -1 19 -3 4 -6 -2 -5 -13z"/>
<path d="M7769 4006 c8 -9 24 -22 35 -28 19 -10 20 -10 7 6 -8 9 -24 22 -35
28 -19 10 -20 10 -7 -6z"/>
<path d="M2528 3996 c13 -7 32 -26 43 -42 10 -16 19 -24 19 -17 0 6 -5 15 -11
18 -6 4 -8 13 -5 20 3 8 -7 18 -26 24 -41 14 -48 13 -20 -3z"/>
<path d="M4516 3997 c3 -10 9 -15 12 -12 3 3 0 11 -7 18 -10 9 -11 8 -5 -6z"/>
<path d="M5426 3954 c-4 -20 -5 -38 -2 -41 2 -3 8 11 12 31 3 21 4 39 1 42 -2
3 -8 -11 -11 -32z"/>
<path d="M7700 3985 c0 -3 19 -19 42 -35 23 -17 66 -53 95 -80 30 -28 56 -50
58 -50 9 0 -1 38 -14 54 -16 19 -1 22 17 4 8 -8 12 -8 12 -1 0 13 -28 25 -41
17 -5 -3 -9 2 -9 10 0 22 4 21 58 -17 91 -63 122 -91 109 -100 -8 -6 -6 -7 5
-3 29 9 167 -119 239 -221 33 -48 49 -59 22 -15 -31 50 -111 147 -155 188 -72
68 -225 183 -252 190 -30 7 -46 -17 -26 -41 18 -22 -4 -18 -24 4 -16 17 -16
20 -1 35 9 9 11 16 5 16 -6 0 -13 -6 -16 -14 -4 -11 -18 -5 -57 25 -49 36 -67
46 -67 34z m185 -125 c3 -5 1 -10 -4 -10 -6 0 -11 5 -11 10 0 6 2 10 4 10 3 0
8 -4 11 -10z"/>
<path d="M3698 3966 c-30 -22 -21 -48 32 -91 19 -16 17 -11 -9 23 -32 41 -33
44 -16 62 21 23 18 25 -7 6z"/>
<path d="M5065 3960 c-16 -17 -16 -20 -3 -15 9 4 19 13 22 21 7 19 2 18 -19
-6z"/>
<path d="M2670 3940 c8 -5 20 -10 25 -10 6 0 3 5 -5 10 -8 5 -19 10 -25 10 -5
0 -3 -5 5 -10z"/>
<path d="M2843 3919 c32 -18 89 -61 125 -95 71 -66 111 -131 137 -224 l15 -55
-4 47 c-3 25 -18 72 -33 105 -44 95 -186 224 -273 247 -14 4 1 -8 33 -25z"/>
<path d="M1294 3770 c0 -96 2 -136 3 -87 2 48 2 126 0 175 -1 48 -3 8 -3 -88z"/>
<path d="M2710 3925 c0 -7 61 -37 66 -33 2 3 -12 12 -31 21 -19 9 -35 15 -35
12z"/>
<path d="M6164 3760 c2 -102 7 -162 15 -175 10 -17 11 -10 5 40 -4 33 -10 112
-14 175 l-8 115 2 -155z"/>
<path d="M7380 3905 c0 -5 5 -17 10 -25 5 -8 10 -10 10 -5 0 6 -5 17 -10 25
-5 8 -10 11 -10 5z"/>
<path d="M2281 3846 c-7 -25 -11 -52 -9 -61 1 -10 10 10 19 44 18 70 10 84
-10 17z"/>
<path d="M2805 3875 c11 -9 29 -21 40 -26 l20 -10 -20 16 c-11 9 -29 21 -40
26 l-20 10 20 -16z"/>
<path d="M6076 3833 c-6 -14 -5 -15 5 -6 7 7 10 15 7 18 -3 3 -9 -2 -12 -12z"/>
<path d="M7905 3820 c-4 -7 6 -26 27 -48 96 -102 197 -286 223 -407 22 -97 32
-310 16 -329 -10 -12 -7 -24 13 -61 39 -70 57 -95 68 -95 5 0 2 7 -6 16 -9 8
-16 18 -16 20 0 3 18 35 40 72 24 39 39 75 36 85 -2 11 -2 16 2 13 3 -4 16 15
29 41 27 54 44 183 24 183 -7 0 -11 -20 -11 -54 0 -30 -5 -58 -10 -61 -6 -4
-8 -11 -5 -16 4 -5 1 -17 -4 -26 -6 -10 -11 -13 -11 -8 0 6 -17 9 -40 7 -36
-4 -40 -2 -41 19 l-1 24 -8 -25 c-7 -21 -8 -18 -10 20 -2 41 -3 42 -9 15 -6
-26 -8 -22 -14 30 -16 123 -67 275 -126 370 -13 22 -24 42 -23 45 0 3 -10 17
-23 32 -15 17 -22 34 -19 45 4 13 3 14 -4 5 -7 -10 -12 -8 -25 11 -8 13 -22
30 -29 38 -8 8 -19 22 -25 33 -7 13 -12 15 -18 6z m302 -682 c-3 -7 -5 -2 -5
12 0 14 2 19 5 13 2 -7 2 -19 0 -25z m71 -50 c7 -7 12 -19 11 -27 0 -10 -4 -7
-10 7 -5 13 -13 20 -19 17 -5 -3 -10 -1 -10 4 0 14 13 14 28 -1z"/>
<path d="M7930 3826 c0 -2 8 -10 18 -17 15 -13 16 -12 3 4 -13 16 -21 21 -21
13z"/>
<path d="M6056 3793 c-6 -14 -5 -15 5 -6 7 7 10 15 7 18 -3 3 -9 -2 -12 -12z"/>
<path d="M5435 3677 c6 -127 37 -290 78 -408 38 -110 117 -264 164 -319 18
-21 33 -41 33 -43 0 -3 -12 -8 -27 -10 -23 -3 -21 -4 9 -6 26 -1 48 -10 73
-32 52 -46 43 -29 -20 35 -71 74 -108 129 -155 229 -75 161 -131 371 -150 561
l-9 91 4 -98z"/>
<path d="M1151 3690 c-27 -162 -4 -385 50 -491 23 -46 111 -139 131 -139 7 0
-11 21 -39 46 -66 57 -106 139 -127 259 -19 105 -20 199 -5 295 6 39 9 78 7
87 -2 10 -10 -16 -17 -57z"/>
<path d="M1820 3760 c-1 -3 -3 -16 -6 -30 -2 -14 -13 -63 -25 -110 -28 -118
-31 -138 -21 -120 15 25 64 238 59 252 -3 7 -6 11 -7 8z"/>
<path d="M5220 3698 c-37 -80 -60 -169 -59 -228 1 -36 4 -27 15 43 8 53 27
121 48 168 40 94 37 106 -4 17z"/>
<path d="M2262 3725 c0 -16 2 -22 5 -12 2 9 2 23 0 30 -3 6 -5 -1 -5 -18z"/>
<path d="M2252 3650 c0 -19 2 -27 5 -17 2 9 2 25 0 35 -3 9 -5 1 -5 -18z"/>
<path d="M3044 3568 c1 -53 -2 -100 -6 -104 -5 -4 -16 0 -26 9 -10 10 -22 17
-26 17 -4 0 5 -11 20 -24 27 -23 28 -25 15 -67 -7 -24 -28 -75 -47 -112 -18
-37 -29 -65 -24 -62 15 9 60 103 86 179 24 70 31 179 15 236 -4 14 -7 -18 -7
-72z"/>
<path d="M5972 3633 c-18 -45 -34 -120 -30 -139 2 -11 14 21 26 70 23 89 24
121 4 69z"/>
<path d="M8071 3644 c0 -11 3 -14 6 -6 3 7 2 16 -1 19 -3 4 -6 -2 -5 -13z"/>
<path d="M1294 3530 c3 -19 8 -60 11 -90 13 -121 82 -359 120 -413 22 -32 19
-35 -27 -40 l-43 -4 44 -1 c40 -2 49 -8 99 -59 50 -53 51 -54 18 -11 -48 62
-110 179 -136 257 -25 74 -70 290 -70 335 0 17 -5 38 -11 46 -7 11 -8 6 -5
-20z"/>
<path d="M5922 3540 c0 -14 2 -19 5 -12 2 6 2 18 0 25 -3 6 -5 1 -5 -13z"/>
<path d="M3123 3505 c0 -22 2 -30 4 -17 2 12 2 30 0 40 -3 9 -5 -1 -4 -23z"/>
<path d="M2960 3499 c0 -5 5 -7 10 -4 6 3 10 8 10 11 0 2 -4 4 -10 4 -5 0 -10
-5 -10 -11z"/>
<path d="M4969 3493 c-8 -10 -31 -31 -50 -46 -29 -25 -30 -26 -5 -12 l29 17
-8 -53 c-4 -30 -9 -78 -10 -108 -3 -52 -5 -55 -57 -96 -55 -43 -86 -75 -73
-75 4 0 27 17 51 38 83 72 156 118 173 108 5 -3 11 -14 14 -25 4 -15 -15 -27
-112 -72 -64 -30 -123 -54 -131 -54 -8 0 -37 -16 -65 -35 -35 -25 -62 -35 -90
-36 -22 -1 -58 -10 -80 -22 -43 -21 -155 -123 -155 -140 0 -6 26 16 58 48 63
62 131 103 165 98 16 -2 2 -15 -57 -52 -43 -27 -83 -54 -90 -61 -24 -24 -74
-54 -79 -49 -3 3 -12 -7 -21 -24 -8 -16 -27 -37 -42 -47 -14 -9 -60 -46 -100
-81 -41 -36 -74 -62 -74 -59 0 11 93 145 101 145 5 0 9 5 9 12 0 25 -70 -58
-120 -142 l-52 -89 -33 16 c-29 14 -33 21 -38 68 -3 29 -15 71 -26 94 -21 40
-66 79 -78 67 -3 -3 -19 15 -34 42 -46 77 -75 106 -38 37 50 -94 60 -107 74
-102 48 19 115 -177 76 -224 -15 -18 -19 -16 -89 75 -111 144 -169 199 -248
238 -38 20 -81 38 -96 42 -16 3 -28 13 -28 21 0 7 -4 16 -8 19 -5 3 -9 -16
-10 -42 0 -26 -10 -72 -20 -102 -36 -100 -35 -96 -24 -81 9 12 23 8 89 -24
103 -51 245 -174 310 -270 l22 -33 -22 -29 c-44 -57 -142 -170 -206 -237 -84
-87 -371 -329 -471 -397 -19 -13 -35 -29 -35 -36 0 -9 -107 -83 -120 -83 -1 0
-3 10 -3 23 0 12 -12 48 -26 80 -20 43 -86 246 -86 262 0 1 15 6 33 11 l32 8
-36 3 -36 4 -31 97 c-18 53 -39 132 -49 175 -9 42 -20 77 -24 77 -3 0 -13 -8
-20 -17 -8 -9 -9 -14 -3 -10 19 11 27 -52 9 -70 -12 -11 -15 -11 -15 -1 0 7
-6 4 -12 -7 -6 -11 -20 -29 -30 -40 -19 -20 -19 -20 -9 8 13 35 14 47 1 27
-12 -19 -20 -9 -23 26 -2 30 -15 46 -29 38 -4 -3 -8 -35 -8 -72 0 -105 49
-190 135 -235 30 -16 29 -16 -55 -18 -72 -2 -77 -3 -36 -8 l48 -6 74 -215 73
-214 -38 -41 c-108 -117 -183 -404 -179 -686 l1 -134 10 152 c6 94 13 150 19
147 5 -3 7 -16 4 -28 -8 -30 10 -179 35 -301 24 -113 25 -115 45 -115 8 0 23
-15 34 -32 11 -18 20 -27 20 -19 0 8 18 -4 41 -27 22 -23 56 -49 75 -58 19 -9
34 -20 34 -25 0 -5 5 -9 10 -9 6 0 29 -12 53 -27 43 -28 83 -63 71 -63 -17 0
21 -30 40 -31 11 -1 -33 -6 -99 -10 -66 -4 -145 -4 -175 1 -74 11 -87 -5 -16
-20 37 -7 143 -10 305 -9 235 3 251 2 271 -16 37 -34 76 -22 137 43 29 31 59
56 66 54 7 -2 9 -1 5 3 -4 4 -2 12 3 19 5 6 18 21 28 34 18 22 20 22 30 5 6
-10 11 -13 11 -7 0 5 -5 15 -11 21 -8 8 -1 26 25 66 48 72 56 119 28 157 -15
20 -18 30 -9 33 6 2 1 5 -13 5 -14 0 -48 1 -77 2 -29 1 -65 -5 -81 -14 -16 -8
-32 -13 -36 -11 -3 3 -4 2 -2 -1 2 -3 -4 -14 -15 -25 -22 -22 -44 -16 -34 9 3
9 3 13 -1 9 -4 -4 -26 8 -48 27 -89 72 -166 68 -176 -9 l-6 -40 -52 103 c-82
161 -122 282 -137 420 l-7 62 25 -11 c22 -10 36 -8 84 11 146 58 252 128 340
224 58 63 193 289 324 540 31 61 61 112 66 113 5 2 16 -10 26 -26 17 -29 17
-31 -34 -153 -131 -319 -183 -476 -219 -657 -38 -192 -20 -271 98 -427 98
-130 256 -269 371 -329 143 -73 435 -126 773 -140 174 -7 161 -13 293 120 50
50 110 107 135 127 l45 37 -47 -23 c-25 -13 -61 -38 -80 -55 -38 -36 -41 -36
-58 -16 -11 13 -10 14 5 9 13 -5 16 -3 13 7 -2 7 -18 15 -34 16 -21 2 -25 0
-14 -7 13 -8 13 -10 1 -10 -11 0 -10 -4 4 -13 11 -9 15 -19 10 -27 -6 -10 -4
-12 9 -7 10 4 15 3 11 -3 -8 -14 -18 -13 -41 5 -19 15 -19 15 1 8 19 -6 19 -5
3 13 -16 18 -18 23 -18 44 0 6 -18 10 -40 10 -22 0 -40 4 -40 9 0 5 -16 12
-36 15 -37 8 -101 56 -85 65 5 3 -14 6 -42 7 -35 0 -45 -2 -31 -8 12 -5 7 -6
-16 -2 -26 4 -31 3 -20 -5 18 -13 1 -14 -18 -2 -16 10 41 35 104 46 21 4 48
13 59 20 35 22 156 35 332 36 146 1 160 3 103 11 -71 10 -229 4 -342 -13 -84
-12 -294 -65 -453 -114 -242 -75 -306 -81 -349 -36 -16 16 -25 34 -21 40 3 7
1 10 -5 9 -27 -7 -145 208 -188 342 -56 178 -76 358 -62 549 14 191 18 201 40
119 35 -133 160 -308 363 -510 86 -85 146 -138 159 -138 46 0 88 50 230 276
166 263 473 848 503 957 10 37 23 67 29 67 8 0 8 2 0 8 -7 5 -8 31 -3 82 10
96 11 235 2 244 -4 3 -8 30 -8 59 -1 28 -5 77 -10 108 -9 65 -12 62 105 75 71
7 140 35 106 42 -10 2 -22 -1 -26 -8 -4 -6 -43 -16 -86 -21 -309 -36 -494
-163 -543 -375 -27 -115 0 -206 73 -249 72 -42 103 -43 164 -2 28 20 52 33 52
31 0 -6 -40 -102 -131 -315 -57 -133 -153 -319 -231 -447 -21 -34 -38 -67 -38
-72 0 -5 -12 -17 -27 -27 -16 -10 -30 -20 -33 -23 -3 -3 -24 -17 -47 -32 l-42
-27 -55 19 c-97 33 -195 90 -238 139 -135 153 -238 359 -288 575 -52 225 4
333 265 508 122 82 350 202 365 193 6 -3 10 -17 10 -30 0 -25 49 -159 56 -153
2 2 -8 39 -21 81 -32 99 -32 166 -1 233 37 80 95 115 215 130 38 5 52 4 47 -4
-4 -7 5 -9 31 -4 21 4 93 7 161 7 67 0 122 3 122 8 0 4 -4 7 -9 7 -13 0 -88
111 -106 158 -11 26 -24 42 -34 42 -15 -1 -15 -1 1 -10 9 -6 22 -27 28 -48 7
-20 19 -47 26 -59 8 -13 10 -23 4 -23 -5 0 -11 -10 -11 -22 -1 -15 -3 -18 -6
-7 -3 13 -16 16 -58 15 -29 0 -51 -4 -49 -8 2 -4 1 -9 -3 -11 -11 -7 -127 -19
-181 -19 -29 0 -40 -3 -35 -11 3 -7 3 -9 -2 -5 -4 4 -20 1 -36 -7 -34 -18 -42
-19 -33 -2 8 15 -41 -40 -63 -71 -9 -13 -19 -19 -22 -13 -3 5 -20 12 -36 15
-26 6 -27 5 -7 -3 25 -12 31 -26 6 -17 -10 4 -22 -1 -30 -11 -12 -17 -13 -17
-14 4 0 12 -4 24 -9 27 -5 4 -5 -10 0 -31 4 -21 6 -39 3 -42 -2 -2 -4 1 -4 7
0 8 -18 12 -50 12 -40 0 -48 -3 -44 -15 4 -8 2 -16 -2 -16 -16 -3 -64 -5 -64
-3 0 10 98 73 108 69 7 -2 11 -1 8 4 -8 12 43 44 60 37 8 -3 14 1 14 9 0 18
39 30 53 16 9 -9 9 -14 -1 -20 -11 -6 -10 -10 4 -15 25 -10 29 0 10 30 -10 14
-16 27 -14 29 16 13 51 25 60 19 6 -4 8 -3 5 3 -3 5 67 46 156 91 89 45 150
79 135 76 -20 -5 -28 -2 -28 8 0 8 -6 23 -14 33 -13 18 -14 18 -55 -3 l-41
-22 1 58 c1 69 20 164 34 169 6 2 30 -30 54 -71 24 -41 60 -90 79 -108 42 -39
33 -22 -24 48 -23 28 -54 77 -69 108 -15 31 -28 56 -29 56 -1 0 -8 -8 -17 -17z
m-1428 -718 c11 -4 19 -9 16 -11 -2 -3 -16 0 -30 5 -20 8 -25 15 -20 28 7 17
8 17 11 1 2 -9 12 -20 23 -23z m74 5 c-3 -5 3 -10 14 -10 12 0 21 -4 21 -10 0
-5 -8 -10 -17 -10 -17 -1 -17 -1 0 -11 28 -16 71 -59 59 -59 -6 0 -14 5 -17
10 -4 6 -27 21 -53 35 -26 13 -41 24 -34 25 6 0 11 3 11 8 -3 18 2 32 12 32 5
0 7 -4 4 -10z m1588 -65 c35 -72 37 -80 37 -173 -1 -139 -10 -176 -56 -224
-74 -76 -112 -84 -191 -38 -64 37 -69 55 -10 33 62 -23 151 -21 184 3 15 11
29 26 31 33 3 8 -10 3 -28 -10 -42 -32 -134 -32 -202 -2 l-48 22 0 58 c0 142
65 260 184 339 28 18 53 33 56 33 3 1 22 -33 43 -74z m144 -12 c-3 -10 -5 -4
-5 12 0 17 2 24 5 18 2 -7 2 -21 0 -30z m-1292 -122 c3 -5 1 -12 -5 -16 -6 -4
-8 -11 -5 -16 4 -5 3 -9 -2 -9 -12 0 -35 16 -35 25 0 8 22 25 34 25 4 0 9 -4
13 -9z m-1320 -460 c-8 -7 -34 66 -40 111 -4 36 -1 30 19 -32 14 -41 23 -76
21 -79z m1125 36 c-115 -259 -217 -392 -460 -595 -87 -72 -114 -88 -192 -112
l-27 -8 20 46 c11 26 36 67 56 92 29 37 612 620 620 620 1 0 -7 -20 -17 -43z
m1370 -141 c0 -1 -11 -24 -25 -50 -14 -27 -42 -79 -61 -117 -20 -38 -40 -72
-46 -75 -6 -4 -5 3 1 15 7 12 9 27 5 33 -4 6 -3 8 3 5 6 -4 14 1 18 10 3 10 1
19 -5 21 -8 3 -7 8 1 18 9 11 8 18 -2 31 -8 9 -9 14 -3 10 6 -3 18 8 28 24 10
17 20 28 23 25 3 -3 0 -12 -6 -20 -12 -14 -25 -66 -17 -66 2 0 13 19 24 42 16
32 19 46 10 61 -8 16 -8 19 5 14 9 -3 18 1 21 9 5 12 26 21 26 10z m-147 -226
c-3 -12 -8 -19 -11 -16 -5 6 5 36 12 36 2 0 2 -9 -1 -20z m7 -40 c0 -4 -7 -15
-15 -26 -15 -18 -15 -18 -8 0 4 12 3 17 -4 13 -5 -3 -10 -1 -10 6 0 7 9 13 19
13 10 0 18 -3 18 -6z m-1721 -466 c-41 -30 -186 -104 -205 -104 -7 0 -15 4
-18 9 -4 5 4 7 16 3 17 -4 20 -2 15 12 -6 14 -3 16 14 11 14 -5 19 -3 15 3 -3
6 6 15 21 21 l28 11 -30 -5 -30 -5 29 16 c15 9 37 14 47 11 10 -3 17 0 16 6
-1 6 17 14 40 17 24 4 46 9 49 13 4 4 12 7 18 7 5 0 -6 -11 -25 -26z m1338
-188 c-28 -44 -85 -77 -112 -66 -11 5 -15 9 -10 10 6 0 1 7 -9 15 -19 15 -19
15 5 15 19 0 21 2 9 10 -12 8 -10 10 10 9 14 -1 36 -4 50 -8 20 -5 30 -1 48
21 32 38 36 35 9 -6z m-148 -13 c-10 -11 -14 -11 -20 -1 -10 17 -2 28 17 21
11 -4 12 -8 3 -20z m-840 -656 c6 10 11 14 11 9 0 -20 -125 -163 -132 -149 -3
4 -4 3 -2 -3 1 -7 -8 -22 -22 -35 -22 -21 -34 -16 -16 7 4 5 0 1 -10 -8 -32
-35 -61 -21 -45 22 10 25 8 34 -11 60 -22 29 -18 42 6 18 7 -7 13 -8 13 -3 1
6 2 16 3 24 2 28 55 56 106 56 27 0 52 4 56 8 5 4 14 1 20 -8 11 -15 13 -15
23 2z m-229 -138 c0 -12 -11 -18 -35 -21 -38 -4 -50 16 -15 25 11 3 20 11 19
19 0 10 -2 10 -6 1 -2 -7 -9 -13 -15 -13 -6 0 -6 6 2 15 6 8 8 20 4 27 -4 7 4
2 19 -12 15 -14 27 -32 27 -41z"/>
<path d="M4610 1052 c0 -7 8 -12 17 -10 24 4 27 24 3 24 -11 0 -20 -6 -20 -14z"/>
<path d="M3681 414 c0 -11 3 -14 6 -6 3 7 2 16 -1 19 -3 4 -6 -2 -5 -13z"/>
<path d="M3465 290 c-3 -5 -1 -10 4 -10 6 0 11 5 11 10 0 6 -2 10 -4 10 -3 0
-8 -4 -11 -10z"/>
<path d="M2960 3471 c0 -5 5 -13 10 -16 6 -3 10 -2 10 4 0 5 -4 13 -10 16 -5
3 -10 2 -10 -4z"/>
<path d="M6051 3464 c0 -11 3 -14 6 -6 3 7 2 16 -1 19 -3 4 -6 -2 -5 -13z"/>
<path d="M2150 3440 c1 -39 71 -158 137 -231 28 -31 33 -46 39 -105 5 -59 -7
-178 -20 -191 -10 -11 -216 112 -238 142 -4 6 -8 21 -9 35 0 23 -1 23 -9 5
-14 -34 -49 61 -59 162 l-9 88 2 -90 c1 -49 6 -99 10 -110 9 -23 -54 39 -72
71 -6 10 -13 16 -17 13 -8 -9 64 -98 126 -156 78 -73 147 -123 217 -156 l63
-29 -33 -24 c-17 -13 -46 -24 -62 -25 -25 0 -27 -2 -12 -8 17 -7 11 -14 -42
-49 -33 -23 -64 -42 -67 -42 -3 0 -48 -34 -99 -74 -101 -81 -157 -140 -187
-198 -27 -54 -23 -61 6 -10 55 96 150 183 329 301 169 112 176 118 192 196 27
128 9 236 -43 268 -19 12 -91 121 -119 180 -13 29 -24 45 -24 37z"/>
<path d="M6062 3410 c0 -14 2 -19 5 -12 2 6 2 18 0 25 -3 6 -5 1 -5 -13z"/>
<path d="M3111 3413 c-1 -6 -4 -19 -8 -29 -4 -11 -2 -15 4 -11 6 4 48 -16 93
-43 82 -49 107 -60 95 -40 -3 6 -10 10 -15 10 -21 0 -153 85 -160 104 -5 11
-9 16 -9 9z"/>
<path d="M1992 3380 c0 -19 2 -27 5 -17 2 9 2 25 0 35 -3 9 -5 1 -5 -18z"/>
<path d="M2756 3395 c4 -8 11 -15 16 -15 6 0 5 6 -2 15 -7 8 -14 15 -16 15 -2
0 -1 -7 2 -15z"/>
<path d="M1751 3328 c0 -40 3 -68 9 -68 12 0 12 27 1 90 -8 44 -9 44 -10 -22z"/>
<path d="M2688 3324 c-4 -39 -10 -86 -13 -105 -4 -29 -3 -28 10 11 9 26 14 70
13 105 l-3 60 -7 -71z"/>
<path d="M5923 3340 c0 -25 2 -35 4 -22 2 12 2 32 0 45 -2 12 -4 2 -4 -23z"/>
<path d="M6071 3374 c-2 -21 30 -99 50 -124 l20 -25 -18 35 c-10 19 -26 55
-35 80 -9 25 -17 40 -17 34z"/>
<path d="M6520 3369 c0 -12 56 -95 70 -104 5 -3 -6 21 -26 54 -37 61 -44 70
-44 50z"/>
<path d="M2780 3361 c0 -6 4 -13 10 -16 6 -3 7 1 4 9 -7 18 -14 21 -14 7z"/>
<path d="M2434 3340 c32 -49 112 -124 177 -166 72 -47 165 -88 183 -80 6 3 5
5 -3 5 -27 2 -147 66 -214 114 -37 27 -88 72 -113 101 -26 28 -39 40 -30 26z"/>
<path d="M1510 3330 c0 -19 94 -106 163 -150 40 -25 67 -49 67 -59 0 -25 -65
-148 -112 -211 -54 -72 -87 -104 -149 -141 -27 -17 -48 -34 -45 -36 6 -7 121
75 157 111 37 37 111 150 143 219 15 31 31 57 36 57 5 0 23 -29 39 -65 31 -67
70 -129 77 -122 3 2 -12 31 -31 63 -37 61 -75 168 -75 209 0 13 -5 27 -11 31
-9 5 -10 -6 -5 -40 4 -25 4 -46 0 -46 -27 0 -188 114 -227 160 -15 17 -27 26
-27 20z"/>
<path d="M2061 3314 c0 -11 3 -14 6 -6 3 7 2 16 -1 19 -3 4 -6 -2 -5 -13z"/>
<path d="M2826 3283 c33 -58 46 -75 51 -69 4 3 -18 45 -48 95 -27 42 -29 20
-3 -26z"/>
<path d="M1867 3288 c9 -21 21 -38 25 -38 10 0 -2 25 -26 55 -14 17 -14 14 1
-17z"/>
<path d="M6881 3294 c0 -11 3 -14 6 -6 3 7 2 16 -1 19 -3 4 -6 -2 -5 -13z"/>
<path d="M2802 3265 c0 -16 2 -22 5 -12 2 9 2 23 0 30 -3 6 -5 -1 -5 -18z"/>
<path d="M3065 3112 c0 -164 -1 -169 -33 -257 -18 -49 -35 -99 -38 -110 -5
-19 -5 -19 9 -2 8 10 30 61 48 115 32 92 33 104 32 232 0 74 -5 147 -9 162 -6
18 -9 -32 -9 -140z"/>
<path d="M5934 3205 c2 -39 8 -79 13 -90 6 -11 22 -45 35 -75 27 -59 73 -120
90 -120 6 0 -5 17 -22 37 -45 51 -78 127 -101 231 l-19 87 4 -70z"/>
<path d="M6872 3250 c0 -14 2 -19 5 -12 2 6 2 18 0 25 -3 6 -5 1 -5 -13z"/>
<path d="M3425 3203 c15 -25 45 -83 67 -127 40 -83 45 -66 6 21 -43 94 -42 86
-3 80 19 -3 48 -15 64 -26 16 -12 31 -21 33 -21 9 0 -5 60 -15 67 -6 4 -7 -4
-3 -23 7 -28 7 -28 -13 -10 -11 10 -41 21 -66 24 -31 3 -49 11 -56 23 -5 11
-6 19 -2 19 10 0 -19 20 -30 20 -5 0 3 -21 18 -47z"/>
<path d="M5342 3210 c0 -19 6 -51 13 -70 17 -45 18 -30 1 45 -11 48 -14 53
-14 25z"/>
<path d="M8332 3220 c0 -14 2 -19 5 -12 2 6 2 18 0 25 -3 6 -5 1 -5 -13z"/>
<path d="M6861 3203 c-1 -15 -7 -23 -18 -23 -14 0 -13 -3 5 -16 12 -8 22 -23
22 -32 0 -9 18 -49 39 -88 44 -81 44 -84 9 -244 -25 -112 -42 -139 -138 -210
-38 -28 -70 -54 -70 -56 0 -8 148 98 170 121 24 26 66 163 76 246 9 83 17 66
15 -33 -1 -73 2 -90 28 -144 16 -34 34 -65 40 -68 6 -4 -4 23 -23 59 -32 63
-34 71 -29 144 6 76 5 78 -30 127 -44 61 -76 134 -87 194 -4 25 -8 35 -9 23z"/>
<path d="M705 3185 c3 -16 31 -82 63 -145 48 -98 69 -127 137 -196 78 -79 125
-115 125 -95 0 5 -21 25 -47 44 -92 68 -180 189 -250 346 -19 42 -32 63 -28
46z"/>
<path d="M6734 3186 c11 -9 34 -15 50 -15 31 1 31 1 -4 8 -20 4 -42 11 -50 15
-8 4 -6 0 4 -8z"/>
<path d="M805 3171 c46 -55 201 -132 295 -146 19 -3 -4 7 -52 23 -95 32 -186
79 -233 121 -26 23 -27 23 -10 2z"/>
<path d="M1070 3186 c0 -2 8 -10 18 -17 15 -13 16 -12 3 4 -13 16 -21 21 -21
13z"/>
<path d="M4376 3114 c-118 -71 -173 -94 -208 -88 -25 4 -29 3 -18 -5 35 -25
72 -11 244 93 33 20 56 36 50 36 -5 0 -36 -16 -68 -36z"/>
<path d="M6651 3124 c0 -11 3 -14 6 -6 3 7 2 16 -1 19 -3 4 -6 -2 -5 -13z"/>
<path d="M2467 3109 c6 -6 9 -19 6 -28 -3 -11 -2 -12 4 -4 6 8 28 2 83 -24 76
-36 209 -74 258 -72 15 0 -22 13 -83 29 -123 32 -173 51 -224 86 -37 25 -64
33 -44 13z"/>
<path d="M7885 3030 c2 -52 13 -130 25 -173 11 -44 18 -88 15 -99 -16 -49 50
-214 101 -251 22 -16 20 -12 -9 27 -46 59 -77 144 -77 207 0 27 -9 86 -21 130
-11 44 -25 120 -29 167 l-9 87 4 -95z"/>
<path d="M2222 3080 c0 -14 2 -19 5 -12 2 6 2 18 0 25 -3 6 -5 1 -5 -13z"/>
<path d="M5043 3093 c9 -2 23 -2 30 0 6 3 -1 5 -18 5 -16 0 -22 -2 -12 -5z"/>
<path d="M2387 3076 c14 -26 114 -126 127 -126 6 0 1 7 -10 15 -12 8 -45 40
-74 72 -29 32 -48 50 -43 39z"/>
<path d="M6661 3064 c0 -11 3 -14 6 -6 3 7 2 16 -1 19 -3 4 -6 -2 -5 -13z"/>
<path d="M432 3025 c-17 -37 -14 -45 4 -12 9 16 14 31 11 33 -2 2 -9 -7 -15
-21z"/>
<path d="M2544 2982 c43 -45 88 -70 142 -79 32 -5 35 -8 29 -32 -17 -66 -68
-170 -100 -201 -39 -38 -55 -35 -29 4 9 15 15 29 12 31 -2 2 -15 -17 -29 -42
-26 -51 -99 -106 -216 -166 -34 -17 -61 -33 -59 -35 11 -11 295 152 312 179 3
5 12 9 20 9 10 0 14 -12 14 -42 1 -24 5 -62 9 -86 l8 -42 -66 -68 c-37 -37
-77 -89 -89 -115 -41 -86 -24 -188 39 -241 l32 -27 -31 -67 c-17 -37 -49 -114
-70 -172 -127 -337 -172 -459 -172 -466 1 -16 60 131 160 396 17 47 52 133 77
192 43 104 46 108 71 102 27 -5 27 -5 -3 12 -107 59 -141 154 -91 259 31 66
92 134 172 190 36 25 67 45 69 45 9 0 170 118 198 145 15 14 27 30 27 36 0 5
-16 -6 -36 -26 -40 -40 -222 -165 -241 -165 -7 0 -20 11 -29 25 -23 35 -13
139 21 229 14 37 29 84 34 106 8 37 7 40 -13 40 -35 0 -91 19 -112 38 -10 10
-37 31 -59 47 l-40 29 39 -42z"/>
<path d="M3705 3000 c3 -5 8 -10 11 -10 2 0 4 5 4 10 0 6 -5 10 -11 10 -5 0
-7 -4 -4 -10z"/>
<path d="M5570 3001 c0 -6 4 -13 10 -16 6 -3 7 1 4 9 -7 18 -14 21 -14 7z"/>
<path d="M7740 2998 c0 -9 7 -19 16 -22 15 -6 15 -4 3 11 -7 10 -15 20 -16 22
-2 2 -3 -3 -3 -11z"/>
<path d="M411 2973 c-1 -6 -4 -20 -7 -30 -5 -17 -5 -17 6 0 6 10 9 23 6 30 -3
9 -5 9 -5 0z"/>
<path d="M5590 2966 c0 -2 7 -9 15 -16 9 -7 15 -8 15 -2 0 5 -7 12 -15 16 -8
3 -15 4 -15 2z"/>
<path d="M7731 2954 c0 -11 3 -14 6 -6 3 7 2 16 -1 19 -3 4 -6 -2 -5 -13z"/>
<path d="M6585 2938 c4 -9 15 -55 25 -104 13 -60 19 -77 19 -53 1 53 -20 147
-36 160 -11 9 -12 9 -8 -3z"/>
<path d="M2534 2919 c0 -13 3 -15 13 -7 7 6 13 12 13 13 0 2 -6 5 -13 8 -7 3
-13 -3 -13 -14z"/>
<path d="M7716 2915 c-9 -26 -7 -32 5 -12 6 10 9 21 6 23 -2 3 -7 -2 -11 -11z"/>
<path d="M376 2851 c-9 -38 -16 -110 -16 -158 1 -234 105 -402 265 -426 36 -6
34 -4 -17 14 -72 26 -142 87 -174 153 l-26 51 39 -41 c50 -55 90 -80 159 -104
58 -20 124 -27 124 -12 0 4 -15 9 -32 10 -89 7 -168 44 -232 111 -30 31 -42
54 -52 98 -12 57 -12 57 -14 18 l-2 -40 -13 40 c-18 55 -18 206 0 284 9 35 14
66 11 68 -2 2 -11 -27 -20 -66z"/>
<path d="M7050 2877 c43 -46 128 -97 160 -96 8 0 -7 9 -34 19 -27 11 -63 32
-80 47 -67 61 -89 75 -46 30z"/>
<path d="M1929 2880 c26 -22 32 -34 28 -52 -11 -41 -97 -182 -135 -221 -43
-45 -131 -96 -220 -127 -34 -13 -60 -25 -58 -28 7 -6 115 34 180 65 93 46 186
158 240 287 12 30 20 37 33 31 10 -4 34 -9 53 -11 29 -4 27 -2 -17 14 -28 10
-67 30 -87 45 -46 36 -60 34 -17 -3z"/>
<path d="M2965 2868 c-3 -24 -9 -52 -11 -63 -4 -16 -3 -17 4 -5 11 17 26 110
18 110 -2 0 -7 -19 -11 -42z"/>
<path d="M4515 2900 c-3 -5 -1 -10 4 -10 6 0 11 5 11 10 0 6 -2 10 -4 10 -3 0
-8 -4 -11 -10z"/>
<path d="M5618 2903 c6 -2 18 -2 25 0 6 3 1 5 -13 5 -14 0 -19 -2 -12 -5z"/>
<path d="M6083 2896 c6 -15 3 -17 -15 -13 -66 16 -98 19 -98 8 0 -6 12 -11 28
-11 54 -1 139 -29 222 -73 47 -24 99 -48 115 -52 44 -10 20 7 -55 39 -36 15
-90 44 -120 65 -83 56 -84 57 -77 37z"/>
<path d="M8280 2876 c0 -2 7 -7 16 -10 8 -3 12 -2 9 4 -6 10 -25 14 -25 6z"/>
<path d="M5925 2850 c10 -11 20 -20 23 -20 3 0 -3 9 -13 20 -10 11 -20 20 -23
20 -3 0 3 -9 13 -20z"/>
<path d="M8171 2818 c18 -27 34 -48 36 -48 7 0 -16 35 -42 65 -20 23 -19 18 6
-17z"/>
<path d="M2623 2788 c-12 -35 -20 -64 -18 -66 5 -5 46 109 43 119 -2 5 -13
-19 -25 -53z"/>
<path d="M8075 2840 c-3 -6 1 -7 9 -4 18 7 21 14 7 14 -6 0 -13 -4 -16 -10z"/>
<path d="M5810 2828 c3 -3 21 -13 40 -22 25 -12 31 -13 20 -3 -8 8 -26 18 -40
22 -14 4 -23 5 -20 3z"/>
<path d="M3050 2764 c-30 -31 -46 -50 -35 -43 20 12 101 99 93 99 -2 0 -28
-25 -58 -56z"/>
<path d="M5966 2810 c4 -8 48 -53 97 -100 90 -86 117 -128 117 -182 0 -67 -61
-130 -182 -189 -116 -57 -168 -71 -253 -67 -62 2 -73 1 -58 -9 23 -17 106 -16
176 2 32 8 60 15 62 15 9 0 5 -75 -9 -165 -174 -1120 -249 -1476 -423 -1993
-19 -57 -33 -108 -31 -114 4 -12 91 243 137 402 72 250 174 715 215 980 9 58
26 159 36 225 39 240 88 561 95 620 l7 60 61 30 c35 17 88 55 120 87 55 54 57
58 57 108 0 28 -6 63 -14 78 -8 15 -61 72 -117 127 -56 55 -98 93 -93 85z"/>
<path d="M8310 2805 c-14 -8 -20 -14 -15 -14 6 0 21 6 35 14 14 8 21 14 15 14
-5 0 -21 -6 -35 -14z"/>
<path d="M5840 2751 c0 -6 4 -13 10 -16 6 -3 7 1 4 9 -7 18 -14 21 -14 7z"/>
<path d="M1395 2720 c-3 -6 1 -7 9 -4 18 7 21 14 7 14 -6 0 -13 -4 -16 -10z"/>
<path d="M5868 2643 c5 -88 -3 -121 -45 -184 -54 -82 -191 -143 -349 -156
l-89 -7 65 -8 c48 -6 82 -4 129 8 204 50 303 149 302 302 0 37 -5 81 -10 97
-6 21 -7 4 -3 -52z"/>
<path d="M1345 2703 c-11 -3 -27 -11 -35 -18 -8 -6 -49 -29 -90 -50 -91 -45
-200 -105 -200 -110 0 -3 349 173 359 182 5 4 -7 2 -34 -4z"/>
<path d="M1178 2693 c6 -2 18 -2 25 0 6 3 1 5 -13 5 -14 0 -19 -2 -12 -5z"/>
<path d="M3386 2640 c-50 -55 -46 -64 6 -13 23 23 39 45 36 48 -3 3 -22 -13
-42 -35z"/>
<path d="M2359 2643 c-185 -209 -248 -420 -153 -517 19 -20 43 -36 52 -36 11
0 6 7 -14 19 -111 68 -78 265 80 474 67 88 79 109 35 60z"/>
<path d="M1407 2618 c-14 -18 -28 -44 -32 -58 -9 -31 -6 -28 33 38 36 59 35
68 -1 20z"/>
<path d="M8601 2638 c0 -7 30 -32 66 -56 78 -52 76 -43 -6 22 -34 26 -61 41
-60 34z"/>
<path d="M4801 2614 c0 -11 3 -14 6 -6 3 7 2 16 -1 19 -3 4 -6 -2 -5 -13z"/>
<path d="M7070 2610 c0 -5 5 -10 10 -10 6 0 10 5 10 10 0 6 -4 10 -10 10 -5 0
-10 -4 -10 -10z"/>
<path d="M6431 2579 c-115 -32 -193 -70 -222 -107 -27 -35 -26 -150 2 -237 12
-36 24 -64 26 -61 2 2 -6 41 -17 87 -24 91 -22 164 4 204 20 31 100 67 216
100 94 27 142 45 110 44 -8 -1 -62 -14 -119 -30z"/>
<path d="M3173 2562 c-51 -14 -90 -28 -88 -30 5 -5 205 48 205 54 0 8 -26 2
-117 -24z"/>
<path d="M4799 2576 c-21 -21 39 -206 77 -236 17 -14 17 -12 -2 20 -28 48 -44
94 -58 163 -6 33 -14 56 -17 53z"/>
<path d="M7125 2550 c-3 -6 1 -7 9 -4 18 7 21 14 7 14 -6 0 -13 -4 -16 -10z"/>
<path d="M1356 2515 c-9 -26 -7 -32 5 -12 6 10 9 21 6 23 -2 3 -7 -2 -11 -11z"/>
<path d="M3036 2521 c-4 -5 3 -7 14 -4 23 6 26 13 6 13 -8 0 -17 -4 -20 -9z"/>
<path d="M7131 2514 c-1 -23 65 -131 95 -154 22 -17 20 -13 -34 55 -17 22 -38
58 -46 80 -9 26 -15 33 -15 19z"/>
<path d="M7270 2500 c30 -11 64 -19 75 -19 11 0 -9 9 -45 19 -82 24 -103 24
-30 0z"/>
<path d="M2956 2501 c-3 -4 6 -6 19 -3 14 2 25 6 25 8 0 8 -39 4 -44 -5z"/>
<path d="M1092 2488 c-43 -55 -80 -185 -64 -229 7 -18 10 -8 14 46 5 68 31
137 66 178 8 9 10 17 5 17 -6 0 -15 -6 -21 -12z"/>
<path d="M1330 2441 c-5 -21 -12 -60 -15 -87 -6 -54 0 -50 9 7 6 33 11 37 49
47 l42 11 -39 -4 -38 -4 6 34 c9 47 -1 44 -14 -4z"/>
<path d="M8084 2442 c11 -12 17 -24 15 -25 -17 -13 -70 -28 -80 -21 -8 4 -10
3 -5 -4 7 -12 -42 -87 -51 -78 -9 9 -114 -23 -157 -48 -40 -24 -46 -31 -45
-59 2 -30 2 -30 6 -5 2 15 16 37 30 48 29 23 113 50 154 50 20 0 36 11 59 40
27 35 57 52 95 55 15 1 6 28 -18 50 l-21 20 18 -23z"/>
<path d="M2095 2409 c-26 -24 -60 -62 -75 -84 -41 -60 -90 -159 -89 -181 0
-18 1 -18 9 1 l8 20 6 -20 c16 -48 51 -108 74 -126 l25 -19 -26 0 c-29 0 -65
33 -74 68 -3 12 -10 21 -17 19 -14 -6 -102 86 -126 132 -11 20 -19 31 -20 25
0 -5 13 -31 30 -57 l30 -48 -54 -63 c-58 -69 -130 -175 -123 -183 3 -2 15 13
28 34 31 52 115 154 145 177 l25 19 37 -40 c20 -21 46 -51 57 -67 18 -25 28
-28 117 -37 62 -6 110 -6 130 0 30 8 27 9 -29 10 -77 1 -101 10 -153 57 -29
26 -44 51 -56 90 -14 49 -14 56 2 86 21 43 98 150 118 167 14 12 15 8 10 -45
-3 -33 -1 -70 4 -84 9 -21 11 -13 11 43 1 37 8 84 16 104 8 20 13 38 11 40 -3
3 -26 -15 -51 -38z"/>
<path d="M2758 2431 c-37 -12 -50 -23 -58 -45 -12 -36 -12 -36 0 -36 6 0 10 9
10 20 0 19 15 31 64 50 18 7 25 6 23 -2 -1 -6 4 -13 10 -15 9 -3 12 4 11 21
-1 14 -5 25 -8 25 -3 -1 -26 -9 -52 -18z"/>
<path d="M8342 2420 c-15 -20 -22 -42 -21 -72 l2 -43 6 45 c4 25 15 57 25 73
24 36 15 35 -12 -3z"/>
<path d="M7080 2391 c0 -26 -5 -30 -52 -46 -82 -26 -184 -84 -228 -128 l-40
-40 17 -28 c10 -15 39 -55 65 -89 44 -57 47 -63 42 -108 -10 -83 17 -134 148
-283 32 -36 58 -68 58 -72 0 -3 -26 -13 -57 -22 -64 -19 -143 -87 -143 -123 0
-13 -12 -28 -30 -39 -41 -24 -117 -121 -137 -176 -10 -27 -13 -54 -9 -71 9
-36 74 -105 143 -153 31 -21 72 -54 90 -74 18 -20 58 -54 88 -75 l55 -37 -20
-22 c-12 -12 -26 -40 -31 -61 -7 -22 -28 -55 -51 -77 -86 -84 -163 -242 -156
-324 3 -33 10 -42 50 -69 25 -17 63 -35 84 -38 29 -6 54 -25 115 -89 68 -71
76 -83 68 -104 -14 -36 -9 -52 5 -20 7 16 19 33 27 38 11 8 10 11 -6 20 -11 6
-52 44 -91 84 -50 51 -82 75 -105 80 -78 17 -139 64 -139 106 0 75 85 243 157
310 27 25 46 53 53 80 6 23 22 51 35 63 24 22 24 22 3 37 -79 55 -126 93 -141
114 -10 14 -42 41 -71 60 -29 19 -76 60 -105 89 -54 58 -61 82 -39 133 20 46
98 143 134 166 19 12 34 30 34 39 0 48 103 122 182 131 15 2 30 5 33 8 3 3
-25 41 -62 84 -144 165 -170 215 -158 298 7 42 5 46 -54 119 -34 42 -61 83
-61 91 0 34 139 121 258 163 49 17 52 20 52 51 0 18 -2 33 -5 33 -3 0 -5 -13
-5 -29z"/>
<path d="M1781 2394 c0 -11 3 -14 6 -6 3 7 2 16 -1 19 -3 4 -6 -2 -5 -13z"/>
<path d="M1772 2340 c0 -14 2 -19 5 -12 2 6 2 18 0 25 -3 6 -5 1 -5 -13z"/>
<path d="M8647 2353 c-4 -3 -7 -37 -7 -75 0 -71 7 -89 84 -233 18 -35 22 -174
6 -205 -8 -14 -5 -43 11 -106 25 -102 22 -149 -14 -228 -14 -31 -24 -56 -21
-56 3 0 18 28 34 63 35 73 38 121 12 222 -15 59 -16 76 -6 110 7 22 13 66 13
97 1 50 -5 69 -51 155 -50 94 -52 101 -52 180 -1 46 -1 83 -2 83 0 0 -4 -3 -7
-7z"/>
<path d="M931 2165 c-1 -40 23 -103 53 -140 9 -11 5 3 -10 31 -14 28 -29 73
-33 100 l-9 49 -1 -40z"/>
<path d="M1050 2193 c1 -10 60 -79 60 -70 0 12 -44 77 -52 77 -5 0 -8 -3 -8
-7z"/>
<path d="M7776 2150 c13 -52 39 -87 124 -170 64 -63 89 -95 95 -120 8 -39 40
-106 54 -114 5 -4 -2 16 -15 44 -13 27 -24 61 -24 75 0 19 -25 50 -99 123 -59
58 -107 115 -120 142 -11 25 -18 34 -15 20z"/>
<path d="M775 2111 c-17 -29 -23 -112 -11 -153 13 -43 13 -43 8 29 -2 39 0 85
6 102 11 30 9 41 -3 22z"/>
<path d="M6249 2043 c-29 -43 -43 -70 -31 -59 29 26 97 125 90 132 -4 3 -30
-30 -59 -73z"/>
<path d="M6371 2083 c0 -5 14 -19 32 -32 l32 -25 -29 32 c-31 33 -36 37 -35
25z"/>
<path d="M9190 2076 c0 -2 8 -10 18 -17 15 -13 16 -12 3 4 -13 16 -21 21 -21
13z"/>
<path d="M8220 2067 c3 -3 37 -17 75 -32 39 -14 86 -40 105 -58 19 -18 28 -23
20 -12 -27 37 -52 54 -104 73 -67 25 -102 36 -96 29z"/>
<path d="M1190 2036 c0 -3 15 -15 33 -27 l32 -23 -24 27 c-22 24 -41 35 -41
23z"/>
<path d="M1415 2012 c17 -17 26 -19 55 -12 l35 8 -33 1 c-18 1 -43 6 -55 12
l-22 11 20 -20z"/>
<path d="M1448 1943 c12 -2 32 -2 45 0 12 2 2 4 -23 4 -25 0 -35 -2 -22 -4z"/>
<path d="M7216 1900 c5 -4 27 -11 49 -14 45 -7 38 -2 -19 13 -22 6 -35 6 -30
1z"/>
<path d="M1645 1850 c-9 -16 -13 -30 -11 -30 3 0 12 14 21 30 9 17 13 30 11
30 -3 0 -12 -13 -21 -30z"/>
<path d="M8334 1850 c-12 -5 -26 -15 -30 -22 -6 -10 -5 -10 7 -2 8 6 28 16 44
22 17 6 23 10 15 11 -8 0 -25 -4 -36 -9z"/>
<path d="M7501 1785 c0 -5 6 -21 14 -35 8 -14 14 -20 14 -15 0 6 -6 21 -14 35
-8 14 -14 21 -14 15z"/>
<path d="M7370 1765 c0 -5 5 -17 10 -25 5 -8 10 -10 10 -5 0 6 -5 17 -10 25
-5 8 -10 11 -10 5z"/>
<path d="M7534 1710 c7 -27 40 -104 58 -140 31 -58 9 6 -28 83 -19 40 -33 65
-30 57z"/>
<path d="M2011 1690 c14 -31 19 -36 19 -24 0 6 -7 19 -16 30 -14 18 -14 18 -3
-6z"/>
<path d="M8121 1665 c0 -14 38 -59 45 -53 3 3 -6 19 -20 34 -14 16 -25 25 -25
19z"/>
<path d="M2030 1649 c0 -4 7 -22 15 -40 10 -25 14 -29 15 -13 0 17 -29 70 -30
53z"/>
<path d="M8106 1613 c-4 -5 -59 -10 -121 -13 -150 -7 -150 -7 -150 -143 0 -95
2 -106 30 -156 17 -30 50 -77 74 -104 40 -43 46 -57 52 -113 10 -82 34 -127
121 -227 97 -112 98 -113 98 -101 0 6 -36 53 -81 105 -92 106 -115 150 -127
238 -8 53 -14 66 -54 109 -73 78 -101 141 -106 242 -4 74 -2 88 16 110 19 24
26 25 124 26 90 0 148 12 148 29 0 8 -16 6 -24 -2z"/>
<path d="M2061 1534 c0 -11 3 -14 6 -6 3 7 2 16 -1 19 -3 4 -6 -2 -5 -13z"/>
<path d="M7610 1525 c0 -5 5 -17 10 -25 5 -8 10 -10 10 -5 0 6 -5 17 -10 25
-5 8 -10 11 -10 5z"/>
<path d="M1993 1402 c-143 -259 -306 -640 -416 -977 -51 -156 -106 -425 -87
-425 9 0 20 37 20 70 0 49 51 247 101 400 100 302 239 634 371 888 44 83 77
152 75 152 -2 0 -31 -48 -64 -108z"/>
<path d="M7630 1474 c0 -6 6 -24 14 -40 8 -16 40 -94 72 -174 53 -135 93 -216
61 -125 -40 112 -146 358 -147 339z"/>
<path d="M7622 1390 c0 -14 2 -19 5 -12 2 6 2 18 0 25 -3 6 -5 1 -5 -13z"/>
<path d="M8227 1329 c7 -7 15 -10 18 -7 3 3 -2 9 -12 12 -14 6 -15 5 -6 -5z"/>
<path d="M7390 1316 c0 -2 8 -10 18 -17 15 -13 16 -12 3 4 -13 16 -21 21 -21
13z"/>
<path d="M8265 1313 c6 -5 37 -29 69 -54 66 -49 114 -115 110 -151 -1 -13 -3
-28 -3 -35 -1 -6 -9 -14 -18 -17 -11 -3 -7 -4 7 -3 22 2 25 7 28 45 4 59 -37
116 -133 181 -48 33 -74 48 -60 34z"/>
<path d="M2271 1261 c-29 -69 -26 -78 5 -12 13 30 23 56 20 58 -2 2 -13 -19
-25 -46z"/>
<path d="M7607 1253 c-10 -31 -16 -58 -13 -60 6 -6 38 95 34 106 -2 5 -11 -16
-21 -46z"/>
<path d="M2226 1143 c-9 -26 -12 -43 -7 -38 11 13 32 77 27 82 -2 2 -11 -17
-20 -44z"/>
<path d="M8691 1180 c1 -8 5 -26 9 -40 l8 -25 1 25 c0 14 -4 32 -9 40 -9 13
-10 13 -9 0z"/>
<path d="M7286 1167 c3 -10 9 -15 12 -12 3 3 0 11 -7 18 -10 9 -11 8 -5 -6z"/>
<path d="M8747 1174 c-4 -4 -7 -15 -7 -25 0 -10 -7 -24 -15 -33 -9 -9 -11 -17
-5 -21 9 -6 30 33 30 56 0 17 17 9 28 -13 6 -13 11 -18 11 -12 1 17 -33 57
-42 48z"/>
<path d="M8795 1095 c4 -11 15 -44 26 -73 10 -29 22 -84 28 -122 9 -64 6 -82
-25 -211 -19 -77 -34 -143 -34 -147 1 -22 22 38 50 143 27 101 31 131 26 188
-6 65 -41 186 -66 224 -11 17 -11 16 -5 -2z"/>
<path d="M2196 1075 c-9 -26 -7 -32 5 -12 6 10 9 21 6 23 -2 3 -7 -2 -11 -11z"/>
<path d="M7536 1074 c-3 -9 -6 -44 -6 -79 0 -79 -12 -107 -53 -124 -22 -9 -27
-15 -17 -18 7 -3 16 -1 18 6 2 6 10 11 18 11 24 0 42 53 45 138 2 45 3 82 3
82 -1 0 -5 -7 -8 -16z"/>
<path d="M7800 1057 c0 -13 103 -248 106 -244 4 3 -94 237 -102 246 -2 2 -4 1
-4 -2z"/>
<path d="M2156 975 c-9 -26 -7 -32 5 -12 6 10 9 21 6 23 -2 3 -7 -2 -11 -11z"/>
<path d="M8452 926 c26 -7 54 -19 63 -26 8 -7 18 -10 22 -7 9 10 -78 47 -107
46 -16 0 -8 -5 22 -13z"/>
<path d="M8550 878 c-24 -43 -41 -85 -27 -67 13 16 67 119 63 119 -3 0 -19
-24 -36 -52z"/>
<path d="M6021 854 c0 -11 3 -14 6 -6 3 7 2 16 -1 19 -3 4 -6 -2 -5 -13z"/>
<path d="M7405 824 l-30 -26 33 22 c17 12 32 23 32 26 0 7 -4 5 -35 -22z"/>
<path d="M7461 758 c-1 -45 31 -152 49 -163 4 -3 -1 19 -12 48 -11 28 -24 77
-28 107 l-7 55 -2 -47z"/>
<path d="M5595 717 c-4 -10 -19 -24 -34 -32 -17 -9 -20 -14 -10 -15 24 0 63
34 57 51 -5 11 -7 10 -13 -4z"/>
<path d="M3798 693 c7 -3 16 -2 19 1 4 3 -2 6 -13 5 -11 0 -14 -3 -6 -6z"/>
<path d="M2703 643 c3 -10 19 -69 35 -132 17 -63 37 -120 45 -128 8 -8 -3 45
-27 131 -23 80 -45 146 -50 146 -4 0 -6 -8 -3 -17z"/>
<path d="M3872 644 c-7 -8 -8 -14 -3 -14 10 0 25 19 20 25 -2 1 -10 -3 -17
-11z"/>
<path d="M8088 650 c-38 -3 -71 -10 -75 -15 -5 -4 33 -4 82 1 50 5 111 9 138
9 26 0 47 3 47 8 0 8 -96 7 -192 -3z"/>
<path d="M3900 635 c-7 -9 -8 -15 -2 -15 5 0 12 7 16 15 3 8 4 15 2 15 -2 0
-9 -7 -16 -15z"/>
<path d="M5010 636 c0 -2 7 -7 16 -10 8 -3 12 -2 9 4 -6 10 -25 14 -25 6z"/>
<path d="M7964 626 c-59 -33 -70 -83 -37 -168 19 -51 88 -151 132 -192 17 -17
31 -38 31 -48 0 -46 119 -218 152 -218 4 0 -14 22 -41 50 -49 49 -101 138
-101 172 0 10 -28 48 -62 85 -75 83 -118 169 -118 236 0 44 2 48 35 64 19 9
35 20 35 25 0 9 1 10 -26 -6z"/>
<path d="M3820 610 c0 -5 5 -10 11 -10 5 0 7 5 4 10 -3 6 -8 10 -11 10 -2 0
-4 -4 -4 -10z"/>
<path d="M7545 528 c26 -56 26 -58 10 -118 -16 -60 -16 -60 11 -106 15 -25 35
-71 45 -102 15 -48 18 -52 18 -26 1 17 -15 64 -35 104 -36 71 -36 73 -24 130
14 64 5 105 -30 150 -17 21 -16 15 5 -32z"/>
<path d="M5283 543 c4 -3 1 -13 -6 -22 -11 -14 -10 -14 6 -2 20 15 22 31 5 31
-6 0 -8 -3 -5 -7z"/>
<path d="M8801 505 c0 -11 4 -38 9 -60 6 -26 6 -51 -1 -72 -9 -28 -5 -45 26
-123 20 -49 48 -127 62 -173 15 -45 28 -75 30 -66 2 9 -21 87 -52 174 -43 121
-55 166 -51 194 3 20 -1 61 -8 91 -8 30 -15 46 -15 35z"/>
<path d="M1125 478 c33 -19 80 -46 103 -62 24 -15 46 -25 50 -22 3 3 3 8 1 10
-16 14 -169 96 -189 101 -14 3 2 -9 35 -27z"/>
<path d="M7148 460 c41 -5 74 -15 94 -30 18 -13 29 -17 26 -9 -8 25 -71 48
-128 47 l-55 -1 63 -7z"/>
<path d="M3797 430 c3 -11 9 -20 15 -20 5 0 4 9 -2 20 -6 11 -12 20 -14 20 -2
0 -2 -9 1 -20z"/>
<path d="M3766 423 c-4 -9 -3 -20 1 -24 4 -4 9 3 9 17 2 28 -1 31 -10 7z"/>
<path d="M8337 380 c52 -19 185 -98 197 -119 4 -6 14 -11 22 -11 24 0 8 16
-64 63 -63 42 -168 88 -195 86 -7 0 11 -9 40 -19z"/>
<path d="M6167 360 c5 -41 -42 -146 -98 -220 -19 -25 -39 -52 -44 -60 -8 -13
-7 -13 10 0 29 23 114 158 127 201 6 22 14 39 17 39 3 0 31 -72 61 -160 30
-88 58 -160 62 -160 5 0 8 3 8 7 0 11 -102 286 -125 338 -22 47 -23 48 -18 15z"/>
<path d="M1383 305 c37 -36 67 -67 67 -69 0 -2 -17 0 -37 5 -53 12 -55 12 -88
-17 l-30 -25 34 17 c29 14 43 14 89 5 91 -18 101 -15 56 18 -21 16 -64 52 -94
80 -30 28 -57 51 -60 51 -3 -1 25 -30 63 -65z"/>
<path d="M3615 240 c-3 -6 1 -7 9 -4 18 7 21 14 7 14 -6 0 -13 -4 -16 -10z"/>
<path d="M3581 196 c-7 -8 -8 -17 -3 -20 6 -3 12 3 15 14 6 24 4 25 -12 6z"/>
<path d="M1467 143 c-15 -32 -15 -35 -1 -18 24 30 36 55 26 55 -4 0 -16 -17
-25 -37z"/>
<path d="M8598 133 c7 -3 16 -2 19 1 4 3 -2 6 -13 5 -11 0 -14 -3 -6 -6z"/>
<path d="M7622 85 c0 -16 2 -22 5 -12 2 9 2 23 0 30 -3 6 -5 -1 -5 -18z"/>
</g>
</svg>
